<svg xmlns="http://www.w3.org/2000/svg" xmlns:xlink="http://www.w3.org/1999/xlink" width="940" zoomAndPan="magnify" viewBox="0 0 705 591.000005" height="788" preserveAspectRatio="xMidYMid meet" version="1.0"><defs><clipPath id="bdb87e275b"><path d="M 30 64.558594 L 674.660156 64.558594 L 674.660156 525.78125 L 30 525.78125 Z M 30 64.558594 " clip-rule="nonzero"/></clipPath></defs><path fill="#ddb537" d="M 171.097656 385.582031 L 179.277344 384.042969 C 179.277344 384.042969 190.015625 404.273438 205.617188 401.453125 C 221.21875 398.632812 218.152344 386.339844 218.152344 386.339844 L 224.804688 388.128906 C 224.804688 388.128906 236.820312 409.640625 235.542969 419.621094 L 229.148438 427.5625 L 188.734375 405.277344 L 179.015625 408.609375 C 179.015625 408.636719 180.046875 395.066406 171.097656 385.582031 Z M 247.308594 497.742188 L 137.339844 496.972656 C 137.339844 496.972656 143.484375 511.054688 137.847656 522.574219 L 241.933594 522.3125 C 241.933594 522.3125 255.488281 518.734375 255.226562 509.757812 C 254.964844 500.785156 247.308594 497.742188 247.308594 497.742188 Z M 227.871094 435.902344 C 223.265625 436.550781 218.660156 431.679688 218.660156 431.679688 L 175.058594 422.457031 L 173.269531 428.085938 C 173.269531 428.085938 189.503906 434.484375 191.046875 439.359375 C 192.585938 444.214844 190.535156 446.527344 190.535156 446.527344 C 190.535156 446.527344 192.324219 449.351562 191.816406 453.4375 C 191.304688 457.527344 186.191406 457.277344 186.191406 457.277344 L 183.636719 465.992188 L 242.71875 464.710938 L 270.59375 423.996094 L 235.433594 432.0625 C 235.417969 432.0625 232.476562 435.269531 227.871094 435.902344 Z M 467.496094 385.582031 C 467.496094 385.582031 472.347656 390.195312 480.03125 389.933594 L 478.492188 395.5625 L 464.113281 396.386719 L 463.34375 414.058594 C 463.34375 414.058594 474.410156 413.992188 473.640625 426.035156 C 472.871094 438.078125 463.34375 436.921875 463.34375 436.921875 L 464.5 460.347656 L 462.574219 479.742188 C 462.574219 479.742188 474.273438 478.585938 476.773438 492.03125 C 479.261719 505.476562 463.152344 507.777344 463.152344 507.777344 L 464.113281 523.523438 L 398.902344 523.136719 L 399.289062 459.175781 L 398.972656 472.117188 C 398.972656 472.117188 380.8125 479.546875 368.027344 481.074219 C 355.246094 482.617188 344.246094 484.652344 333.496094 473.394531 C 333.496094 473.394531 343.726562 445.746094 346.28125 432.929688 C 348.839844 420.128906 350.886719 404.507812 349.347656 399.636719 C 347.808594 394.777344 350.625 392.203125 350.625 392.203125 C 350.625 392.203125 356.769531 395.023438 362.902344 393.222656 C 369.03125 391.417969 375.175781 389.382812 375.175781 389.382812 L 378.242188 406.546875 L 377.222656 421.90625 L 382.597656 418.835938 L 388.222656 439.316406 L 403.5625 434.707031 C 403.5625 434.707031 400.496094 420.363281 414.820312 416.785156 C 429.144531 413.207031 432.472656 426.777344 432.472656 426.777344 L 447.8125 421.917969 L 442.699219 403.226562 C 442.699219 403.226562 453.1875 396.058594 452.679688 387.867188 Z M 446.21875 459.039062 C 445.875 456.5625 443.742188 446.390625 431.894531 446.335938 C 443.785156 447.175781 445.875 456.660156 446.21875 459.039062 Z M 639.875 482.121094 C 631.695312 456.519531 604.066406 417.335938 580.792969 399.925781 C 559.925781 384.316406 532.460938 379.691406 527.59375 380.203125 C 522.742188 380.710938 521.203125 395.5625 521.203125 395.5625 L 527.789062 396.964844 L 526.824219 481.28125 L 571.832031 481.351562 C 571.832031 481.351562 576.4375 490.3125 580.269531 502.355469 C 584.105469 514.382812 575.417969 523.097656 575.417969 523.097656 L 634.238281 522.078125 C 650.609375 514.90625 639.875 482.121094 639.875 482.121094 Z M 394.351562 240.40625 C 394.351562 240.40625 393.84375 238.105469 407.398438 249.875 C 420.953125 261.65625 431.441406 268.054688 431.441406 268.054688 L 423 279.835938 C 423 279.835938 440.898438 282.660156 439.878906 298.789062 C 439.878906 298.789062 448.058594 295.210938 453.695312 290.339844 C 459.316406 285.480469 472.625 274.980469 470.3125 263.707031 C 468.019531 252.433594 442.4375 218.890625 436.554688 210.949219 C 430.671875 203.007812 406.378906 177.410156 383.355469 177.917969 C 383.355469 177.917969 358.542969 212.230469 333.992188 207.371094 C 309.441406 202.511719 314.292969 191.75 318.652344 185.613281 C 322.996094 179.460938 329.648438 173.058594 329.648438 173.058594 C 329.648438 173.058594 301.261719 167.167969 279.007812 174.601562 L 264.945312 182.542969 C 264.945312 182.542969 241.410156 178.441406 248.324219 157.191406 C 248.324219 157.191406 226.59375 162.570312 218.660156 182.28125 C 218.660156 182.28125 210.992188 219.925781 277.988281 214.292969 C 277.988281 214.292969 266.484375 241.175781 295.378906 252.710938 L 301.261719 274.46875 L 371.078125 272.171875 C 371.078125 272.15625 383.355469 246.035156 394.351562 240.40625 Z M 394.351562 240.40625 " fill-opacity="1" fill-rule="evenodd"/><path fill="#ffffff" d="M 189.503906 379.183594 C 193.339844 374.832031 193.601562 364.070312 193.601562 364.070312 C 193.601562 364.070312 181.835938 361.511719 184.390625 352.289062 C 186.949219 343.066406 189.246094 339.488281 192.570312 343.328125 C 195.898438 347.167969 199.222656 355.882812 199.222656 355.882812 C 199.222656 355.882812 212.515625 353.832031 223.511719 349.730469 C 234.511719 345.628906 251.128906 336.929688 251.128906 336.929688 C 251.128906 336.929688 258.554688 384.304688 228.628906 386.601562 L 218.140625 386.339844 C 218.140625 386.339844 217.367188 398.121094 207.910156 400.929688 C 198.453125 403.738281 184.898438 394.019531 179.265625 384.027344 C 179.277344 384.054688 185.671875 383.546875 189.503906 379.183594 Z M 442.699219 403.257812 L 447.8125 421.945312 L 432.472656 426.804688 C 432.472656 426.804688 427.097656 415.023438 414.820312 416.8125 C 402.546875 418.601562 403.5625 434.734375 403.5625 434.734375 L 388.222656 439.34375 L 375.136719 389.449219 C 374.625 389.824219 365.539062 396.207031 350.640625 392.230469 C 350.640625 392.230469 350.378906 393.511719 350.378906 387.882812 C 350.378906 382.488281 349.675781 381.316406 348.042969 379.429688 C 349.992188 384.414062 350.378906 384.992188 350.378906 387.882812 C 350.378906 391.210938 349.871094 393.511719 349.359375 396.84375 C 348.851562 400.171875 351.148438 404.273438 350.640625 410.414062 C 350.128906 416.550781 337.085938 459.578125 337.085938 459.578125 L 335.808594 465.207031 L 310.238281 522.558594 L 246.550781 522.820312 C 246.550781 522.820312 254.484375 515.648438 255.253906 509.757812 C 256.023438 503.867188 250.402344 497.46875 250.402344 497.46875 L 255.007812 495.679688 L 151.6875 496.1875 L 137.339844 496.972656 C 137.339844 496.972656 143.992188 510.804688 137.847656 522.574219 L 98.464844 522.3125 L 127.359375 473.148438 C 127.359375 473.148438 127.425781 475.761719 129.738281 478.445312 C 128.761719 477.042969 127.921875 475.308594 127.359375 473.148438 C 127.359375 473.148438 131.179688 465.839844 135.964844 457.222656 L 98.449219 522.324219 L 61.886719 522.0625 C 61.886719 522.0625 92.058594 462.90625 114.820312 423.476562 C 137.585938 384.042969 171.085938 385.582031 171.085938 385.582031 C 171.085938 385.582031 177.230469 394.804688 178.246094 398.894531 C 179.265625 402.980469 181.3125 407.605469 176.96875 410.675781 C 172.625 413.742188 165.464844 425.265625 165.464844 425.265625 C 165.464844 425.265625 165.214844 425.332031 164.542969 425.554688 C 166.273438 425.800781 168.144531 426.449219 170.316406 427.578125 C 177.738281 431.417969 189.246094 435.765625 191.03125 439.359375 C 192.816406 442.9375 190.523438 446.527344 190.523438 446.527344 C 190.523438 446.527344 193.339844 449.351562 191.800781 453.4375 C 190.261719 457.527344 186.179688 457.277344 186.179688 457.277344 C 186.179688 457.277344 188.996094 461.890625 185.160156 463.941406 C 184.15625 464.476562 181.601562 464.835938 178.398438 465.082031 C 208.105469 465.066406 254.980469 465.730469 254.980469 465.730469 L 242.703125 464.710938 L 267.761719 429.886719 L 268.53125 424.257812 C 268.53125 424.257812 268.585938 423.929688 268.273438 422.910156 L 235.417969 432.078125 C 235.417969 432.078125 232.214844 435.65625 227.871094 435.917969 C 223.527344 436.179688 218.660156 431.691406 218.660156 431.691406 L 175.058594 422.46875 L 173.269531 428.097656 L 167.003906 425.539062 C 167.003906 425.539062 173.394531 409.148438 188.734375 405.304688 L 227.996094 428.609375 L 254.46875 406.847656 C 254.46875 406.847656 255.183594 407.082031 256.296875 407.617188 C 255.199219 407.082031 254.46875 406.847656 254.46875 406.847656 L 236.3125 421.4375 C 236.574219 408.636719 223.019531 386.617188 223.019531 386.617188 C 226.34375 388.667969 235.03125 385.335938 235.03125 385.335938 C 235.03125 385.335938 247.308594 390.457031 257.027344 395.328125 C 265.097656 399.359375 273.136719 409.558594 277.109375 417.613281 C 275.53125 413.277344 273.730469 409.378906 271.734375 407.371094 C 266.9375 402.566406 262.527344 397.765625 262.527344 397.765625 L 268.53125 373.304688 C 268.53125 373.304688 267.761719 380.089844 274.925781 375.867188 C 282.085938 371.640625 272.492188 354.355469 272.492188 354.355469 C 272.492188 354.355469 279.390625 299.808594 301.261719 274.457031 L 371.078125 272.15625 L 382.585938 279.453125 C 382.585938 279.453125 376.070312 286.359375 375.683594 291.742188 C 375.464844 294.867188 376.277344 296.558594 376.992188 297.441406 C 376.480469 296.492188 376.136719 294.46875 376.964844 290.078125 C 378.503906 281.886719 392.566406 274.964844 392.566406 274.964844 C 409.445312 271.632812 414.558594 289.554688 414.558594 289.554688 L 421.210938 281.363281 C 421.210938 281.363281 424.785156 279.066406 434.503906 284.695312 C 444.222656 290.324219 439.878906 298.777344 439.878906 298.777344 L 415.671875 318.71875 C 418.1875 322.835938 420.140625 328.3125 420.566406 333.210938 C 421.269531 341.320312 425.515625 360.710938 426.214844 363.878906 L 431.179688 363.050781 L 436.554688 377.394531 C 436.554688 377.394531 448.566406 375.851562 451.125 385.335938 C 453.695312 394.804688 442.699219 403.257812 442.699219 403.257812 Z M 145.3125 473.617188 C 144.515625 474.714844 143.910156 475.886719 143.632812 477.070312 C 144.058594 476.023438 144.625 474.828125 145.3125 473.617188 Z M 144.527344 442.386719 C 146.769531 438.699219 148.859375 435.449219 150.5625 433.164062 C 147.113281 437.210938 144.691406 442.042969 144.527344 442.386719 Z M 254.691406 494.273438 C 254.210938 491.8125 253.234375 486.582031 252.667969 481.875 C 252.476562 480.277344 252.53125 478.472656 252.710938 476.65625 C 252.269531 479.890625 252.105469 483.179688 252.667969 485.453125 C 253.671875 489.445312 254.347656 492.566406 254.691406 494.273438 Z M 408.636719 340.589844 C 407.027344 338.691406 405.40625 337.273438 403.878906 336.679688 C 403.617188 336.585938 403.34375 336.488281 403.066406 336.390625 C 404.976562 337.453125 406.863281 338.898438 408.636719 340.589844 Z M 382.683594 313.050781 C 382.296875 312.125 382.050781 311.109375 381.882812 310.132812 C 381.828125 311.148438 381.882812 312.167969 382.683594 313.050781 Z M 378.957031 335.910156 C 378.296875 336.308594 377.320312 336.804688 376.179688 337.398438 C 381.085938 335.664062 386.257812 334.535156 390.929688 334.246094 C 385.855469 334.023438 381.183594 334.589844 378.957031 335.910156 Z M 401.347656 315.03125 C 403.988281 313.296875 406.695312 311.933594 409.0625 312.484375 C 411.121094 312.964844 413.308594 315.085938 415.234375 318.03125 C 414.929688 316.515625 413.761719 313.683594 409.0625 312.484375 C 405.664062 311.617188 403.617188 313.078125 401.347656 315.03125 Z M 392.550781 320.371094 C 392.800781 320.328125 393.058594 320.261719 393.335938 320.164062 C 393.058594 320.246094 392.8125 320.300781 392.550781 320.371094 Z M 377.996094 298.265625 C 377.996094 298.265625 375.699219 303.648438 379.917969 305.5625 C 380.796875 305.960938 381.292969 306.441406 381.597656 306.980469 C 381.582031 306.496094 381.582031 306.195312 381.582031 306.195312 C 376.964844 304.929688 377.996094 298.265625 377.996094 298.265625 Z M 313.539062 393.277344 L 314.898438 392.5625 C 314.375 390.894531 312.78125 386.050781 310.679688 382.679688 C 310.789062 382.871094 310.886719 383.078125 310.996094 383.296875 C 312.78125 387.125 313.539062 393.277344 313.539062 393.277344 Z M 308.507812 410.054688 C 308.90625 410.730469 309.386719 411.320312 309.9375 411.804688 C 309.457031 411.308594 308.960938 410.730469 308.507812 410.054688 Z M 320.644531 387.660156 C 322.128906 386.039062 324.054688 384.109375 326.089844 382.679688 C 323.984375 383.972656 321.855469 385.664062 320.644531 387.660156 Z M 332.152344 379.707031 C 332.152344 379.707031 330.980469 380.132812 329.375 380.902344 C 334.570312 378.921875 336.496094 378.164062 331.710938 377.144531 C 333.867188 377.78125 332.152344 379.707031 332.152344 379.707031 Z M 316.863281 374.324219 C 316.191406 373.128906 316.316406 371.832031 317.015625 370.609375 C 315.214844 372.261719 315.050781 373.511719 316.863281 374.324219 Z M 303.957031 381.675781 C 304 381.621094 304.039062 381.535156 304.09375 381.480469 C 305.894531 379.5 307.683594 379.292969 309.222656 380.683594 C 308.164062 379.554688 307.035156 378.9375 305.882812 379.308594 C 304.769531 379.664062 304.191406 380.53125 303.957031 381.675781 Z M 256.339844 407.632812 C 256.492188 407.703125 256.65625 407.796875 256.820312 407.878906 C 256.640625 407.785156 256.492188 407.714844 256.339844 407.632812 Z M 286.691406 463.183594 L 302.03125 438.089844 L 313.289062 414.28125 C 313.289062 414.28125 312.660156 414.019531 311.777344 413.398438 L 288.230469 460.566406 C 288.230469 460.566406 284.394531 441.175781 282.277344 434.445312 C 281.796875 432.917969 281.234375 430.933594 280.617188 428.730469 C 283.253906 441.175781 286.691406 463.183594 286.691406 463.183594 Z M 325.167969 462 C 321.773438 461.695312 317.882812 460.554688 313.800781 457.800781 C 313.167969 457.375 312.589844 456.933594 312.027344 456.492188 C 313.261719 457.992188 314.542969 459.261719 315.847656 460.101562 C 318.390625 461.738281 321.8125 462.152344 325.167969 462 Z M 358.417969 348.324219 C 355.628906 350.597656 352.960938 353.171875 350.75 356.074219 C 342.117188 367.402344 343.710938 369.714844 343.710938 369.714844 C 343.710938 369.714844 340.054688 368.105469 335.601562 366.933594 C 339.203125 368.226562 342.625 370.386719 344.921875 373.265625 C 344.207031 371.339844 343.699219 369.714844 343.699219 369.714844 C 343.699219 369.714844 350.308594 356.898438 358.417969 348.324219 Z M 390.378906 383.65625 C 387.78125 380.984375 384.894531 374.574219 384.894531 374.574219 C 384.894531 374.574219 387.480469 380.945312 390.378906 383.65625 Z M 395.628906 380.726562 C 395.628906 380.726562 395.121094 384.828125 392.304688 384.828125 C 395.890625 385.582031 395.628906 380.726562 395.628906 380.726562 Z M 403.808594 383.875 C 403.300781 384.027344 402.640625 384.097656 401.777344 384.042969 C 402.640625 384.277344 403.300781 384.152344 403.808594 383.875 Z M 420.511719 378.386719 C 420.195312 378.660156 419.851562 378.851562 419.425781 378.9375 C 419.839844 378.878906 420.195312 378.6875 420.511719 378.386719 Z M 421.984375 364.59375 C 421.984375 364.59375 421.625 363.742188 421.019531 362.335938 C 421.707031 366.507812 422.324219 371.1875 421.984375 374.515625 C 422.613281 370.304688 421.984375 364.59375 421.984375 364.59375 Z M 580.285156 502.355469 C 578.746094 515.414062 575.433594 523.097656 575.433594 523.097656 L 507.855469 523.164062 L 462.398438 522.78125 L 463.167969 507.804688 C 463.167969 507.804688 475.632812 506.261719 476.980469 494.550781 C 478.328125 482.835938 463.9375 478.996094 463.9375 478.996094 L 464.511719 460.375 L 482.355469 459.21875 C 482.355469 459.21875 487.347656 449.035156 495.59375 448.664062 C 485.804688 448.664062 482.355469 459.21875 482.355469 459.21875 L 463.179688 459.605469 L 463.371094 436.933594 C 463.371094 436.933594 475.457031 436.164062 473.722656 423.296875 C 471.992188 410.425781 463.371094 414.074219 463.371094 414.074219 L 464.140625 396.402344 L 527.828125 396.980469 L 527.058594 459.976562 L 526.867188 481.035156 C 543.816406 479.546875 571.871094 481.351562 571.871094 481.351562 C 571.871094 481.351562 581.824219 489.292969 580.285156 502.355469 Z M 498.523438 449.0625 C 504.898438 451.179688 508.417969 460.554688 508.417969 460.554688 C 508.417969 460.554688 505.972656 451.125 498.523438 449.0625 Z M 497.503906 492.445312 C 497.667969 491.976562 497.972656 491.453125 498.4375 490.832031 C 499.980469 488.8125 502.039062 487.0625 505.4375 485.578125 C 503.304688 486.183594 501.503906 486.816406 500.363281 487.449219 C 497.519531 489.015625 496.941406 490.890625 497.503906 492.445312 Z M 502.289062 509.523438 C 501.53125 511.3125 501.972656 512.386719 502.867188 513.449219 C 502.207031 512.238281 501.820312 510.859375 502.289062 509.523438 Z M 503.648438 507.390625 C 503.25 507.875 502.894531 508.339844 502.671875 508.753906 C 502.921875 508.355469 503.265625 507.886719 503.648438 507.390625 Z M 522.742188 494.164062 C 522.742188 494.164062 521.972656 490.585938 510.726562 493.144531 C 505.230469 494.398438 501.394531 494.90625 499.277344 494.605469 C 499.894531 495.03125 500.597656 495.347656 501.324219 495.511719 C 504.777344 496.285156 516.089844 492.058594 519.925781 492.636719 C 522.46875 493.023438 522.21875 493.902344 521.273438 494.578125 C 521.765625 494.414062 522.246094 494.273438 522.742188 494.164062 Z M 480.03125 389.945312 C 479.773438 390.71875 478.492188 395.574219 478.492188 395.574219 L 521.203125 395.574219 L 525.808594 381.742188 L 516.089844 380.972656 L 510.46875 368.683594 C 510.46875 368.683594 529.644531 356.898438 519.167969 349.730469 C 508.695312 342.558594 505.355469 352.289062 505.355469 352.289062 C 505.355469 352.289062 508.679688 337.699219 502.027344 332.054688 C 495.375 326.414062 491.800781 328.476562 484.886719 330.003906 C 477.984375 331.546875 465.710938 334.355469 454.191406 334.355469 C 454.191406 334.355469 454.960938 368.160156 461.351562 377.378906 C 467.757812 386.617188 474.148438 389.945312 480.03125 389.945312 Z M 356.246094 483.152344 C 342.957031 483.925781 332.714844 472.144531 332.714844 472.144531 L 310.210938 522.847656 L 401.003906 522.847656 L 398.957031 472.144531 C 398.957031 472.144531 369.554688 482.382812 356.246094 483.152344 Z M 248.324219 157.175781 L 283.363281 141.554688 C 283.363281 141.554688 282.085938 136.941406 283.105469 131.050781 C 283.105469 131.050781 284.890625 125.933594 284.890625 122.601562 C 284.890625 119.269531 287.1875 118.761719 288.726562 115.691406 C 290.265625 112.621094 291.542969 111.082031 295.117188 109.539062 C 298.691406 108 308.933594 102.109375 316.601562 101.859375 C 324.273438 101.597656 324.535156 105.960938 325.042969 110.050781 C 326.832031 102.109375 334.5 91.097656 334.5 91.097656 L 376.195312 126.429688 C 376.195312 126.429688 387.191406 129.496094 387.960938 129.757812 C 388.730469 130.019531 396.660156 132.320312 391.796875 141.277344 C 386.929688 150.238281 376.703125 146.660156 376.703125 146.660156 L 369.800781 150.5 C 369.800781 150.5 368.015625 156.128906 366.984375 159.722656 C 365.964844 163.300781 365.445312 170.472656 369.03125 174.3125 C 372.605469 178.152344 383.355469 177.890625 383.355469 177.890625 C 372.621094 195.300781 353.429688 206.0625 341.925781 206.820312 C 330.417969 207.578125 316.355469 205.800781 316.09375 196.320312 C 315.832031 186.851562 329.648438 173.019531 329.648438 173.019531 C 329.648438 173.019531 334.761719 176.347656 339.875 173.019531 C 344.988281 169.6875 339.875 160.726562 339.875 160.726562 C 325.042969 156.625 324.027344 141.527344 324.027344 141.527344 C 324.027344 141.527344 326.335938 139.902344 328.34375 137.851562 C 327.035156 138.773438 325.441406 139.902344 324.027344 141.527344 C 320.699219 145.367188 319.160156 151.257812 315.078125 155.359375 C 310.980469 159.460938 310.734375 156.378906 304.589844 158.179688 C 298.445312 159.984375 264.945312 182.5 264.945312 182.5 C 241.164062 181.25 248.324219 157.175781 248.324219 157.175781 Z M 306.128906 114.164062 C 308.945312 115.445312 311.503906 124.914062 311.503906 124.914062 L 314.320312 132.085938 C 314.320312 132.085938 314.320312 132.085938 321.222656 129.785156 C 328.054688 127.5 330.128906 131.988281 330.914062 134.3125 C 331.148438 133.722656 331.269531 133.144531 331.203125 132.609375 C 330.695312 129.027344 322.253906 127.488281 322.253906 127.488281 C 322.253906 127.488281 323.160156 119.078125 324.769531 111.464844 C 323.40625 113.117188 317.894531 110.585938 315.089844 110.585938 C 311.75 110.570312 303.3125 112.871094 306.128906 114.164062 Z M 306.128906 114.164062 " fill-opacity="1" fill-rule="evenodd"/><path fill="#000000" d="M 100.757812 449.089844 C 100.757812 449.089844 91.550781 432.449219 95.136719 423.226562 C 98.710938 414.003906 102.300781 411.707031 102.300781 411.707031 C 102.300781 411.707031 91.5625 409.148438 94.121094 398.398438 C 96.675781 387.648438 100.003906 384.316406 106.902344 383.808594 C 113.804688 383.296875 121.734375 387.136719 132.472656 384.578125 C 143.207031 382.019531 154.203125 378.425781 162.90625 365.886719 C 171.609375 353.347656 174.164062 334.90625 178 327.472656 C 181.835938 320.039062 192.570312 298.542969 210.992188 295.210938 C 229.410156 291.878906 252.160156 295.71875 261.371094 309.042969 C 270.582031 322.351562 270.074219 343.09375 272.367188 350.527344 C 274.664062 357.960938 275.433594 360.519531 277.988281 366.148438 C 280.546875 371.777344 280.039062 375.878906 274.925781 375.878906 C 269.8125 375.878906 268.53125 373.320312 268.53125 373.320312 C 268.53125 373.320312 265.714844 383.820312 257.027344 384.59375 C 248.324219 385.363281 245.261719 379.980469 245.261719 379.980469 C 245.261719 379.980469 251.40625 367.179688 252.421875 358.730469 C 253.4375 350.28125 252.160156 338.757812 252.160156 338.757812 C 252.160156 338.757812 239.625 346.441406 232.722656 347.472656 C 225.824219 348.492188 199.222656 355.921875 199.222656 355.921875 C 199.222656 355.921875 195.898438 341.070312 190.785156 342.613281 C 185.671875 344.15625 182.082031 352.34375 183.882812 355.921875 C 185.683594 359.5 191.304688 363.601562 193.601562 364.113281 C 193.601562 364.113281 196.417969 375.894531 187.210938 381.015625 C 178 386.132812 164.445312 386.90625 157.546875 388.183594 C 150.644531 389.464844 138.878906 392.796875 131.714844 400.984375 C 124.554688 409.148438 100.757812 449.089844 100.757812 449.089844 Z M 442.191406 317.988281 C 442.191406 317.988281 446.535156 334.121094 460.085938 334.121094 C 473.640625 334.121094 487.457031 328.230469 494.863281 329.511719 C 502.289062 330.789062 505.863281 332.578125 505.355469 341.539062 C 504.84375 350.5 505.355469 352.289062 505.355469 352.289062 C 505.355469 352.289062 514.054688 343.839844 519.167969 349.730469 C 524.28125 355.621094 518.398438 363.039062 511.5 366.632812 L 512.777344 374.574219 C 512.777344 374.574219 537.835938 358.441406 532.722656 338.46875 C 527.609375 318.5 518.398438 316.1875 518.398438 316.1875 L 522.496094 311.066406 L 514.824219 310.296875 L 518.398438 304.144531 L 506.125 307.984375 C 506.125 307.984375 489.242188 299.53125 474.671875 300.8125 C 460.101562 302.09375 460.347656 307.984375 453.957031 306.964844 C 447.5625 305.945312 446.285156 304.40625 446.285156 304.40625 L 445.515625 315.417969 Z M 294.625 163.328125 L 294.363281 172.289062 C 294.363281 172.289062 315.585938 169.464844 329.648438 173.058594 C 343.710938 176.636719 342.183594 167.167969 341.414062 163.328125 C 340.644531 159.488281 341.414062 161.785156 335.53125 157.4375 C 329.648438 153.089844 324.027344 141.566406 324.027344 141.566406 C 324.027344 141.566406 321.976562 154.121094 315.078125 155.398438 C 308.175781 156.667969 297.6875 160.246094 294.625 163.328125 Z M 306.128906 114.164062 C 306.128906 114.164062 311.242188 121.335938 311.503906 124.914062 C 311.765625 128.492188 314.320312 132.085938 314.320312 132.085938 L 321.222656 129.785156 C 321.222656 129.785156 323.777344 111.34375 325.058594 110.0625 C 326.335938 108.78125 318.402344 110.0625 315.078125 110.570312 C 311.75 111.082031 306.128906 114.164062 306.128906 114.164062 Z M 310.734375 101.875 C 310.734375 101.875 319.175781 100.085938 324.796875 107.503906 L 334.515625 91.109375 L 379.519531 129 C 379.519531 129 392.8125 129 393.582031 135.664062 C 394.351562 142.324219 386.421875 148.972656 376.703125 146.675781 L 368.523438 152.566406 C 368.523438 152.566406 362.378906 172.027344 369.03125 174.324219 C 375.683594 176.625 397.417969 177.394531 410.722656 186.878906 C 424.03125 196.359375 456.25 237.84375 456.25 237.84375 C 456.25 237.84375 469.035156 229.902344 466.742188 217.613281 C 464.445312 205.320312 457.28125 201.742188 457.28125 201.742188 C 457.28125 201.742188 468.019531 189.191406 463.425781 177.160156 C 458.824219 165.132812 447.578125 165.886719 438.367188 163.082031 C 429.15625 160.273438 415.867188 161.03125 412.03125 144.128906 C 408.195312 127.226562 408.457031 113.144531 407.933594 104.433594 C 407.425781 95.722656 400.261719 71.402344 367.78125 68.070312 C 335.296875 64.738281 315.339844 75.488281 310.734375 101.875 Z M 394.351562 240.40625 C 394.351562 240.40625 380.289062 253.34375 377.210938 264.863281 C 377.210938 264.863281 407.136719 266.402344 418.640625 259.09375 C 418.65625 259.09375 400.375 240.144531 394.351562 240.40625 Z M 394.351562 240.40625 " fill-opacity="1" fill-rule="evenodd"/><g clip-path="url(#bdb87e275b)"><path fill="#000000" d="M 672.523438 521.652344 L 638.363281 521.652344 C 639.945312 520.136719 641.277344 518.210938 642.265625 515.871094 C 646.03125 506.964844 645.179688 493.3125 639.847656 477.429688 C 633.839844 459.523438 622.636719 440.347656 607.445312 421.988281 C 568.765625 375.234375 525.933594 377.972656 516.941406 379.15625 L 515.332031 375.316406 C 516.75 374.476562 536.75 362.226562 534.605469 340.039062 C 533.066406 324.058594 525.464844 317.769531 520.859375 315.390625 L 524.226562 312.457031 C 524.859375 311.90625 525.09375 311.027344 524.816406 310.226562 C 524.542969 309.429688 523.816406 308.878906 522.976562 308.835938 L 518.191406 308.601562 L 520.117188 304.089844 C 520.445312 303.316406 520.28125 302.4375 519.691406 301.832031 C 519.113281 301.238281 518.21875 301.046875 517.449219 301.363281 L 506.125 305.90625 C 503.648438 304.570312 496.28125 301.144531 482.546875 298.914062 C 469.820312 296.847656 464.828125 299.972656 460.800781 302.480469 C 459.316406 303.414062 458.023438 304.210938 456.484375 304.652344 C 451.714844 306.015625 448.925781 302.132812 448.816406 301.984375 C 448.472656 301.472656 447.90625 301.144531 447.289062 301.089844 C 446.65625 301.035156 446.066406 301.265625 445.625 301.707031 C 442.355469 305.105469 443.082031 311.257812 443.839844 314.742188 C 442.945312 314.632812 442.355469 314.355469 442.355469 314.355469 C 441.695312 314.027344 440.910156 314.066406 440.292969 314.480469 C 439.675781 314.894531 439.332031 315.59375 439.371094 316.339844 C 440.074219 327.363281 449.160156 332.894531 452.554688 334.589844 C 452.292969 341.359375 451.90625 370.855469 463.976562 384.660156 L 453.28125 386.203125 C 453.253906 386.105469 453.242188 386.023438 453.214844 385.925781 C 450.476562 376.472656 442.519531 375.121094 437.378906 375.839844 L 432.800781 362.074219 C 432.457031 361.042969 431.386719 360.464844 430.328125 360.726562 L 427.246094 361.523438 C 423.988281 339.984375 420.457031 327.527344 417.789062 320.535156 C 417.804688 320.523438 417.816406 320.523438 417.832031 320.507812 C 417.96875 320.398438 431.34375 309.359375 452.980469 293.3125 C 474.90625 277.042969 473.886719 266.925781 470.753906 257.167969 C 469.886719 254.472656 465.488281 247.328125 459.359375 238.519531 C 462.644531 236.371094 469.695312 230.605469 469.695312 220.597656 C 469.695312 210.910156 463 203.835938 459.730469 200.945312 C 462.285156 197.710938 467.222656 190.261719 466.589844 181.675781 C 465.65625 169.09375 456.996094 163.453125 435.671875 161.550781 C 418.683594 160.039062 410.0625 145.203125 410.0625 117.480469 C 410.0625 99.535156 405.636719 86.5 396.550781 77.636719 C 387.492188 68.800781 373.871094 64.53125 356.070312 65.027344 C 310.046875 66.226562 309.921875 100.496094 309.921875 100.839844 C 309.921875 100.839844 309.921875 100.855469 309.921875 100.855469 C 305.964844 101.886719 302.167969 103.839844 299.0625 105.453125 C 297.277344 106.375 295.585938 107.253906 294.195312 107.804688 C 287.886719 110.296875 286.472656 114.703125 286.183594 117.042969 C 282.71875 119.121094 282.390625 123.9375 282.871094 127.296875 C 279.640625 131.230469 280.492188 137.355469 281.234375 140.480469 C 273.90625 143.136719 246.664062 153.265625 231.019531 163.023438 C 223.347656 167.816406 218.277344 174.53125 216.710938 181.949219 C 215.335938 188.460938 216.804688 195.109375 220.929688 201.164062 C 229.082031 213.152344 243.433594 215.5625 257.726562 216.402344 C 260.585938 216.566406 263.445312 216.648438 266.265625 216.648438 C 269.824219 216.648438 273.332031 216.511719 276.78125 216.25 C 275.242188 219.800781 274.183594 223.941406 274.183594 228.609375 C 274.183594 243.613281 288.917969 251.703125 292.835938 253.605469 L 298.527344 274.027344 C 296.824219 276.769531 290.871094 286.59375 284.945312 299.53125 C 280.726562 308.742188 275.957031 320.824219 273.082031 333.390625 C 271.488281 319.378906 265.125 301.074219 241.726562 294.082031 C 226.523438 289.539062 212.792969 290.667969 200.929688 297.441406 C 186.699219 305.5625 176.351562 321.167969 171.003906 342.597656 C 161.804688 379.417969 134.492188 384.371094 124.734375 383.175781 C 123.386719 383.007812 121.996094 382.816406 120.609375 382.609375 C 109.035156 380.972656 94.613281 378.921875 92.25 395.257812 C 91.328125 401.605469 92.304688 406.449219 95.152344 409.65625 C 96.386719 411.046875 97.789062 411.925781 99.097656 412.476562 C 94.269531 417.804688 86.585938 430.453125 98.765625 449.15625 C 98.792969 449.183594 98.820312 449.210938 98.835938 449.238281 C 81.472656 480.648438 61.515625 518.734375 60.207031 521.238281 C 60.140625 521.375 60.085938 521.527344 60.042969 521.679688 L 32.179688 521.679688 C 31.039062 521.679688 30.117188 522.601562 30.117188 523.742188 C 30.117188 524.886719 31.039062 525.808594 32.179688 525.808594 L 672.523438 525.808594 C 673.664062 525.808594 674.585938 524.886719 674.585938 523.742188 C 674.585938 522.601562 673.664062 521.652344 672.523438 521.652344 Z M 604.285156 424.628906 C 635.613281 462.496094 645.195312 498.375 638.472656 514.257812 C 636.628906 518.609375 633.6875 520.960938 629.714844 521.265625 C 629.332031 521.292969 628.972656 521.429688 628.683594 521.652344 L 578.539062 521.652344 C 586.773438 502.738281 579.40625 488.699219 575.183594 482.851562 C 589.300781 483.347656 599.777344 484.144531 600.039062 484.171875 C 601.164062 484.269531 602.167969 483.414062 602.25 482.273438 C 602.332031 481.128906 601.496094 480.140625 600.355469 480.058594 C 599.472656 479.988281 592.1875 479.4375 581.839844 478.957031 C 576.613281 465.992188 566.8125 454.621094 566.386719 454.140625 C 565.644531 453.285156 564.339844 453.191406 563.472656 453.933594 C 562.621094 454.675781 562.523438 455.984375 563.265625 456.851562 C 563.363281 456.960938 572.160156 467.160156 577.273438 478.777344 C 563.058594 478.226562 544.625 477.9375 528.941406 479.121094 L 528.941406 460.679688 L 529.972656 396.609375 C 529.988281 396.058594 529.765625 395.519531 529.382812 395.121094 C 528.996094 394.722656 528.460938 394.503906 527.910156 394.503906 L 523.746094 394.503906 C 524.804688 389.449219 526.246094 384.179688 527.113281 383.160156 C 527.210938 383.039062 527.292969 382.898438 527.363281 382.761719 C 531.980469 382.871094 537.78125 383.421875 544.40625 384.964844 C 559.71875 388.542969 582.523438 398.34375 604.285156 424.628906 Z M 514.578125 521.652344 C 519.304688 517.617188 528.75 510.777344 539.484375 509.746094 C 540.613281 509.636719 541.453125 508.628906 541.339844 507.488281 C 541.230469 506.34375 540.242188 505.507812 539.085938 505.628906 C 524.542969 507.019531 512.625 517.605469 509.285156 520.851562 C 508.832031 520.617188 508.597656 520.328125 508.460938 520.109375 C 507.898438 519.1875 507.992188 517.796875 508.128906 516.984375 C 510.191406 514.921875 521.121094 504.582031 535.308594 501.695312 C 536.421875 501.460938 537.148438 500.371094 536.914062 499.257812 C 536.679688 498.140625 535.582031 497.414062 534.480469 497.648438 C 520.171875 500.550781 509.230469 510.15625 505.847656 513.433594 C 505.132812 512.980469 504.351562 512.292969 504.117188 511.464844 C 503.8125 510.308594 504.695312 508.933594 505.476562 507.996094 C 515.636719 496.132812 533.863281 494.246094 534.042969 494.234375 C 535.167969 494.125 536.007812 493.117188 535.898438 491.976562 C 535.789062 490.832031 534.757812 489.996094 533.65625 490.117188 C 533.3125 490.144531 529.589844 490.53125 524.570312 491.976562 C 524.28125 491.441406 523.761719 491.027344 523.113281 490.902344 C 514.90625 489.472656 510.742188 490.972656 507.058594 492.292969 C 505.160156 492.96875 503.527344 493.558594 501.4375 493.722656 C 500.941406 493.75 499.964844 493.738281 499.894531 493.351562 C 499.675781 492.140625 501.875 488.300781 508.363281 486.386719 C 522.453125 482.34375 548.875 482.066406 569.753906 482.644531 C 569.796875 482.6875 569.808594 482.742188 569.851562 482.78125 C 570.496094 483.414062 585.21875 498.28125 573.988281 521.625 L 514.578125 521.625 Z M 250.953125 521.652344 C 254.746094 518.996094 257.234375 514.605469 257.234375 509.636719 L 257.234375 509.621094 C 257.234375 505.492188 255.515625 501.761719 252.753906 499.09375 L 255.171875 499.09375 C 255.832031 499.09375 256.449219 498.777344 256.835938 498.238281 C 257.21875 497.703125 257.328125 497.015625 257.125 496.394531 C 254.003906 486.703125 253.949219 476.4375 256.972656 466.71875 L 257.054688 466.445312 C 257.246094 465.8125 257.136719 465.136719 256.753906 464.601562 C 256.367188 464.078125 255.75 463.761719 255.089844 463.761719 L 245.464844 463.761719 L 273.550781 424.644531 C 274.046875 423.941406 274.074219 423.007812 273.589844 422.289062 C 273.109375 421.574219 272.257812 421.230469 271.417969 421.425781 L 270.113281 421.726562 C 268.039062 409.132812 255.515625 404.851562 254.964844 404.671875 C 254.292969 404.453125 253.535156 404.589844 253 405.058594 L 237.09375 418.492188 C 235.898438 406.203125 229.617188 393.867188 226.757812 388.804688 C 229.328125 388.75 231.734375 388.40625 233.972656 387.785156 C 236.546875 388.40625 262.773438 395.050781 271.84375 412.765625 C 280.589844 429.820312 284.753906 462.921875 284.792969 463.25 C 284.792969 463.265625 284.808594 463.277344 284.808594 463.304688 C 278.609375 474.152344 273.824219 482.164062 273.714844 482.355469 C 273.125 483.332031 273.453125 484.597656 274.429688 485.191406 C 274.761719 485.382812 275.132812 485.480469 275.488281 485.480469 C 276.1875 485.480469 276.875 485.121094 277.261719 484.476562 C 278.03125 483.179688 290.183594 462.839844 300.890625 442.921875 C 302.636719 448.027344 306.71875 456.976562 314.96875 461.433594 C 318.199219 463.183594 321.746094 464.050781 325.550781 464.050781 C 328.164062 464.050781 330.925781 463.609375 333.785156 462.785156 C 323.53125 489.070312 310.402344 517.316406 308.371094 521.664062 L 250.953125 521.664062 Z M 101.074219 521.652344 L 127.097656 477.085938 C 129.488281 481.0625 134.164062 485.660156 141.351562 485.851562 C 142.121094 488.894531 143.6875 491.699219 145.957031 493.972656 C 146.316406 494.328125 146.671875 494.644531 147.058594 494.964844 L 137.421875 494.964844 C 136.707031 494.964844 136.03125 495.335938 135.660156 495.941406 C 135.289062 496.558594 135.261719 497.316406 135.578125 497.949219 C 139.332031 505.339844 139.359375 514.175781 135.660156 521.582031 L 135.632812 521.636719 L 101.074219 521.636719 Z M 194.851562 361.71875 C 194.785156 361.703125 188.472656 360.367188 186.398438 356.171875 C 185.269531 353.886719 185.558594 351.007812 187.265625 347.609375 C 188.53125 345.078125 189.628906 344.25 190.191406 344.292969 C 192.242188 344.484375 195.484375 350.914062 197.121094 356.554688 C 197.410156 357.53125 198.34375 358.167969 199.363281 358.027344 C 200.351562 357.90625 216.0625 355.8125 231.488281 349.964844 C 231.71875 350.074219 231.953125 350.183594 232.1875 350.320312 C 232.777344 350.664062 233.398438 351.121094 233.945312 351.558594 L 234.03125 351.628906 C 234.195312 351.765625 234.414062 351.808594 234.621094 351.726562 C 234.949219 351.613281 235.117188 351.257812 235.003906 350.925781 C 234.746094 350.195312 234.34375 349.578125 233.878906 349.011719 C 239.734375 346.632812 245.425781 343.714844 250.140625 340.109375 C 250.429688 343.523438 250.691406 348.917969 250.222656 354.78125 C 249.644531 354.296875 249 353.871094 248.269531 353.609375 C 247.363281 353.28125 246.347656 353.15625 245.410156 353.308594 C 244.464844 353.429688 243.597656 353.816406 242.855469 354.339844 C 242.632812 354.492188 242.496094 354.753906 242.496094 355.042969 C 242.511719 355.511719 242.894531 355.882812 243.363281 355.867188 L 243.472656 355.867188 C 244.242188 355.855469 244.929688 355.742188 245.589844 355.785156 C 246.25 355.769531 246.867188 355.882812 247.472656 356.03125 C 248.09375 356.199219 248.695312 356.460938 249.289062 356.804688 C 249.507812 356.941406 249.742188 357.09375 249.976562 357.257812 C 249.039062 365.390625 246.578125 374.035156 240.792969 379.363281 C 235.144531 384.566406 226.921875 385.914062 216.367188 383.382812 C 215.253906 383.105469 214.136719 383.792969 213.878906 384.910156 C 213.617188 386.011719 214.289062 387.136719 215.402344 387.398438 C 215.746094 387.484375 216.078125 387.550781 216.421875 387.621094 C 216.421875 387.660156 216.421875 387.703125 216.421875 387.746094 C 216.421875 387.785156 216.929688 391.816406 214.316406 395.054688 C 212.308594 397.53125 208.96875 398.988281 204.351562 399.359375 C 193.011719 400.296875 184.226562 389.765625 181.023438 385.28125 C 190.730469 382.183594 196.324219 376.652344 196.515625 363.714844 C 196.542969 362.777344 195.828125 361.910156 194.851562 361.71875 Z M 261.699219 395.644531 C 253.949219 390.152344 245.382812 386.878906 239.996094 385.171875 C 241.261719 384.386719 242.46875 383.492188 243.582031 382.460938 C 243.636719 382.417969 243.679688 382.363281 243.71875 382.320312 C 245.535156 385.308594 249.34375 388.335938 255.96875 387.222656 C 258.925781 386.726562 261.300781 385.433594 263.214844 383.808594 C 262.539062 387.414062 261.949219 391.515625 261.699219 395.644531 Z M 176.804688 386.492188 C 179.347656 390.359375 189.066406 403.613281 202.90625 403.613281 C 203.5 403.613281 204.089844 403.585938 204.695312 403.546875 C 210.507812 403.0625 214.839844 401.082031 217.574219 397.652344 C 220.296875 394.242188 220.613281 390.359375 220.585938 388.445312 C 221.011719 388.5 221.453125 388.570312 221.878906 388.613281 C 221.878906 388.613281 221.878906 388.625 221.890625 388.625 C 222 388.804688 232.886719 406.324219 233.191406 421.824219 L 227.84375 426.335938 L 189.367188 402.320312 C 188.84375 401.988281 188.214844 401.921875 187.621094 402.113281 C 185.230469 402.910156 183.03125 403.972656 181.039062 405.195312 C 180.695312 396.003906 177.132812 390.097656 174.578125 386.988281 C 175.332031 386.820312 176.089844 386.65625 176.804688 386.492188 Z M 188.019531 406.339844 L 226.921875 430.617188 C 227.253906 430.824219 227.636719 430.933594 228.007812 430.933594 C 228.488281 430.933594 228.957031 430.769531 229.34375 430.453125 L 254.730469 409.023438 C 257.480469 410.21875 264.835938 414.210938 266.113281 422.664062 L 233.230469 430.21875 C 232.792969 430.316406 232.394531 430.5625 232.105469 430.90625 C 230.289062 433.09375 228.488281 434.167969 226.703125 434.113281 C 223.746094 434.003906 221.464844 430.8125 221.453125 430.796875 C 221.164062 430.371094 220.710938 430.066406 220.214844 429.957031 L 175.304688 419.882812 C 174.300781 419.664062 173.296875 420.199219 172.925781 421.164062 L 171.097656 425.953125 C 170.355469 425.648438 169.613281 425.359375 168.871094 425.085938 C 171.03125 420.777344 177.1875 410.398438 188.019531 406.339844 Z M 251.074219 488.054688 L 188.363281 488.054688 C 184.460938 488.054688 181.300781 484.914062 181.300781 481.074219 C 181.300781 477.222656 184.472656 474.097656 188.363281 474.097656 L 251.15625 474.097656 C 250.511719 478.734375 250.484375 483.414062 251.074219 488.054688 Z M 251.886719 470.007812 C 251.761719 469.980469 251.625 469.96875 251.5 469.96875 L 188.363281 469.96875 C 182.191406 469.96875 177.175781 474.949219 177.175781 481.074219 C 177.175781 487.199219 182.191406 492.183594 188.363281 492.183594 L 251.238281 492.183594 C 251.417969 492.183594 251.597656 492.15625 251.761719 492.113281 C 251.953125 493.0625 252.175781 494.027344 252.421875 494.976562 L 242.730469 494.976562 C 242.691406 494.976562 242.632812 494.964844 242.59375 494.964844 L 157.324219 494.964844 C 154.136719 494.703125 151.167969 493.339844 148.886719 491.054688 C 146.328125 488.496094 144.914062 485.082031 144.914062 481.460938 C 144.914062 473.988281 150.988281 467.890625 158.464844 467.890625 L 170.632812 467.890625 C 168.019531 471.46875 164.75 478.722656 168.515625 490.242188 C 168.804688 491.109375 169.601562 491.660156 170.480469 491.660156 C 170.6875 491.660156 170.90625 491.632812 171.125 491.5625 C 172.210938 491.207031 172.804688 490.035156 172.445312 488.960938 C 167.855469 474.921875 175.277344 468.769531 175.621094 468.496094 C 175.839844 468.332031 176.007812 468.125 176.128906 467.902344 L 252.394531 467.902344 C 252.1875 468.59375 252.050781 469.292969 251.886719 470.007812 Z M 253.109375 509.621094 C 253.109375 515.402344 248.421875 520.121094 242.664062 520.152344 L 140.582031 520.605469 C 140.925781 519.667969 141.226562 518.71875 141.488281 517.769531 L 203.113281 517.769531 C 207.457031 517.769531 210.976562 514.230469 210.976562 509.898438 C 210.976562 505.5625 207.445312 502.023438 203.113281 502.023438 L 141.503906 502.023438 C 141.242188 501.046875 140.941406 500.070312 140.582031 499.105469 L 157.324219 499.105469 C 157.695312 499.132812 158.082031 499.160156 158.453125 499.160156 C 158.453125 499.160156 158.464844 499.160156 158.464844 499.160156 L 207.085938 499.132812 C 207.222656 499.257812 207.375 499.367188 207.554688 499.449219 C 207.964844 499.644531 217.65625 504.324219 213.191406 515.332031 C 212.765625 516.394531 213.273438 517.589844 214.332031 518.015625 C 214.578125 518.128906 214.851562 518.167969 215.101562 518.167969 C 215.910156 518.167969 216.683594 517.6875 217.011719 516.875 C 220.3125 508.753906 217.589844 502.765625 214.027344 499.121094 L 242.757812 499.105469 C 248.476562 499.175781 253.109375 503.867188 253.109375 509.621094 Z M 142.273438 506.140625 L 203.101562 506.140625 C 205.164062 506.140625 206.839844 507.816406 206.839844 509.882812 C 206.839844 511.949219 205.164062 513.625 203.101562 513.625 L 142.273438 513.625 C 142.574219 511.148438 142.574219 508.628906 142.273438 506.140625 Z M 240.433594 463.761719 L 220.886719 463.761719 L 236.683594 440.636719 C 237.328125 439.703125 237.082031 438.410156 236.148438 437.773438 C 235.210938 437.128906 233.917969 437.375 233.289062 438.3125 L 215.996094 463.636719 C 215.96875 463.679688 215.953125 463.734375 215.925781 463.773438 L 186.414062 463.773438 C 186.578125 463.566406 186.742188 463.363281 186.878906 463.128906 C 187.828125 461.601562 188.117188 459.878906 187.757812 458.253906 C 189.449219 457.664062 191.511719 456.5625 192.640625 454.59375 C 194.015625 452.171875 193.09375 449.199219 192.160156 447.246094 C 192.40625 447.039062 192.652344 446.777344 192.875 446.488281 C 193.929688 445.125 194.332031 443.320312 194.054688 441.105469 C 193.492188 436.617188 184.542969 431.648438 174.90625 427.535156 L 176.128906 424.3125 L 218.578125 433.839844 C 219.707031 435.1875 222.578125 438.089844 226.511719 438.257812 C 229.492188 438.351562 232.257812 436.992188 234.8125 434.101562 L 267.035156 426.695312 L 240.546875 463.609375 C 240.492188 463.652344 240.460938 463.707031 240.433594 463.761719 Z M 165.351562 428.15625 C 180.984375 433.988281 189.699219 439.425781 189.957031 441.601562 C 190.152344 443.171875 189.792969 443.832031 189.449219 444.121094 C 185.726562 442.136719 170.617188 434.292969 161.820312 432.53125 C 160.71875 432.3125 159.621094 433.039062 159.402344 434.15625 C 159.179688 435.269531 159.894531 436.355469 161.023438 436.578125 C 169.449219 438.269531 184.984375 446.40625 187.855469 447.945312 C 188.761719 449.40625 189.601562 451.59375 189.066406 452.53125 C 188.351562 453.78125 186.261719 454.457031 185.105469 454.703125 C 180.597656 452.226562 166.644531 444.765625 158.316406 442.949219 C 157.1875 442.703125 156.101562 443.40625 155.855469 444.519531 C 155.605469 445.632812 156.308594 446.734375 157.421875 446.984375 C 165.378906 448.730469 179.621094 456.398438 183.5 458.542969 C 184.089844 459.644531 183.582031 460.636719 183.402344 460.9375 C 182.960938 461.65625 182.042969 462.328125 180.789062 462.09375 C 179.5 461.863281 178.027344 461.351562 176.445312 460.609375 C 175.042969 459.949219 173.53125 459.203125 172.007812 458.449219 C 165.601562 455.308594 158.960938 452.046875 155.140625 451.882812 C 154 451.855469 153.035156 452.707031 152.980469 453.851562 C 152.925781 454.992188 153.804688 455.957031 154.945312 456.011719 C 157.917969 456.148438 164.722656 459.480469 170.179688 462.164062 C 171.304688 462.714844 172.40625 463.25 173.492188 463.773438 L 158.453125 463.773438 C 148.707031 463.773438 140.773438 471.714844 140.773438 481.472656 C 140.773438 481.558594 140.789062 481.640625 140.789062 481.722656 C 133.144531 481.144531 130.066406 474.152344 129.570312 472.84375 L 149.285156 439.070312 C 149.367188 438.917969 157.242188 425.140625 165.351562 428.15625 Z M 314.816406 412.808594 C 314.597656 412.296875 314.183594 411.898438 313.675781 411.707031 C 313.441406 411.609375 308 409.351562 307.777344 400.40625 C 307.558594 391.253906 307.132812 389.050781 306.375 385.074219 C 306.238281 384.386719 306.101562 383.628906 305.949219 382.777344 C 305.867188 382.292969 305.921875 381.910156 306.128906 381.757812 C 306.335938 381.605469 306.789062 381.578125 307.367188 381.867188 C 309.371094 382.84375 311.542969 386.5625 311.667969 394.035156 C 311.683594 394.832031 312.164062 395.546875 312.890625 395.878906 C 313.621094 396.207031 314.472656 396.085938 315.089844 395.5625 C 315.710938 395.023438 316.726562 394.417969 317.605469 394.1875 C 318.15625 396.59375 319.546875 398.382812 320.273438 399.183594 C 319.601562 403.574219 321.773438 407.414062 323.65625 409.351562 C 323.777344 414.085938 326.914062 417.390625 331.613281 417.75 C 336.234375 418.160156 336.976562 414.859375 337.375 413.070312 C 337.773438 411.308594 338.019531 410.246094 340.097656 409.667969 C 341.195312 409.367188 341.828125 408.222656 341.527344 407.125 C 341.222656 406.023438 340.082031 405.390625 338.980469 405.691406 C 334.542969 406.929688 333.800781 410.207031 333.359375 412.160156 C 333.25 412.671875 333.070312 413.425781 332.921875 413.59375 C 332.921875 413.59375 332.6875 413.703125 331.957031 413.648438 C 328.246094 413.359375 327.792969 410.441406 327.765625 409.203125 C 327.695312 405.457031 331.050781 399.789062 338.75 398.878906 C 342.984375 398.382812 345.15625 398.632812 346.226562 399.730469 C 348.6875 402.265625 347.917969 411.335938 346.019531 424.175781 C 344.851562 432.089844 340.785156 444.464844 335.738281 457.789062 C 328.507812 460.59375 322.199219 460.609375 316.976562 457.800781 C 306.980469 452.417969 303.914062 438.421875 303.875 438.269531 C 303.832031 438.078125 303.765625 437.914062 303.683594 437.746094 C 308.300781 428.964844 312.410156 420.613281 314.871094 414.40625 C 315.050781 413.882812 315.023438 413.304688 314.816406 412.808594 Z M 334.210938 375.273438 C 332.300781 373.679688 328.90625 373.183594 324.148438 373.789062 C 320.535156 374.257812 318.582031 373.332031 318.363281 372.535156 C 318.199219 371.957031 318.914062 370.71875 321.015625 369.769531 C 324.863281 368.019531 334.652344 366.769531 340.441406 370.5 C 342.582031 371.875 343.902344 373.789062 344.480469 376.265625 C 341.746094 375.660156 338.582031 375.785156 335.3125 376.582031 C 335.078125 376.167969 334.734375 375.714844 334.210938 375.273438 Z M 417.253906 376.996094 C 416.992188 376.03125 412.320312 358.511719 408.195312 352.386719 C 407.5625 351.4375 406.269531 351.1875 405.335938 351.820312 C 404.386719 352.453125 404.140625 353.75 404.773438 354.683594 C 408.375 360.039062 412.8125 376.402344 413.226562 377.945312 C 413.199219 378.027344 413.171875 378.097656 413.15625 378.179688 C 412.921875 379.484375 412.46875 380.3125 411.808594 380.613281 C 410.75 381.097656 409.007812 380.558594 407.769531 380.007812 C 407.753906 379.871094 407.742188 379.746094 407.699219 379.609375 C 407.507812 378.851562 402.792969 361.140625 398.640625 354.972656 C 398.007812 354.023438 396.71875 353.777344 395.78125 354.410156 C 394.832031 355.042969 394.585938 356.335938 395.21875 357.273438 C 398.929688 362.789062 403.535156 380.007812 403.699219 380.628906 C 403.175781 381.59375 402.722656 381.675781 402.558594 381.703125 C 401.199219 381.910156 398.890625 380.148438 397.734375 378.894531 C 397.570312 378.714844 397.375 378.589844 397.171875 378.480469 C 395.753906 373.429688 392.042969 360.972656 388.703125 356.003906 C 388.070312 355.054688 386.777344 354.808594 385.84375 355.441406 C 384.894531 356.074219 384.648438 357.367188 385.28125 358.304688 C 388.605469 363.246094 392.648438 377.558594 393.570312 380.957031 C 393.144531 381.621094 392.648438 382.140625 392.289062 382.183594 C 391.960938 382.226562 391.082031 381.742188 389.816406 379.761719 C 388.867188 378.273438 387.988281 376.761719 387.148438 375.289062 C 383.410156 368.832031 379.878906 362.734375 372.757812 363.492188 C 367.421875 364.070312 366.019531 361.882812 365.910156 361.703125 C 365.402344 360.710938 364.207031 360.300781 363.191406 360.78125 C 362.160156 361.261719 361.71875 362.5 362.214844 363.535156 C 362.308594 363.742188 364.675781 368.53125 373.195312 367.609375 C 376.632812 367.238281 378.804688 369.546875 381.5 373.882812 L 370.941406 376.746094 C 370.40625 376.886719 369.964844 377.242188 369.691406 377.722656 C 369.417969 378.207031 369.347656 378.769531 369.5 379.292969 L 372 388.265625 C 357.210938 394.667969 351.683594 389.835938 351.53125 389.683594 C 351.476562 389.628906 351.410156 389.601562 351.339844 389.5625 C 352.042969 388.144531 352.921875 385.664062 352.289062 382.980469 C 351.820312 381.042969 350.667969 379.417969 348.839844 378.136719 C 348.644531 374.902344 347.613281 372.121094 345.816406 369.894531 C 346.789062 367.058594 354.761719 345.984375 378.820312 338.25 C 402.050781 330.777344 408.207031 342.378906 413.636719 352.605469 C 414.132812 353.542969 414.613281 354.449219 415.09375 355.316406 C 420.59375 365.242188 419.671875 371.035156 418.929688 375.699219 C 418.863281 376.15625 418.695312 376.71875 418.355469 376.914062 C 418.132812 377.050781 417.695312 377.0625 417.253906 376.996094 Z M 324.851562 403.765625 C 323.972656 401.644531 323.667969 398.5625 326.707031 395.257812 C 332.4375 389.023438 340.851562 387.152344 346.28125 390.910156 C 347.160156 391.515625 347.65625 392.230469 347.808594 393.070312 C 347.945312 393.910156 347.753906 394.820312 347.449219 395.601562 C 345.113281 394.351562 342.035156 394.335938 338.253906 394.792969 C 331.40625 395.574219 326.886719 399.402344 324.851562 403.765625 Z M 345.871094 381.125 C 347.242188 381.894531 348.042969 382.804688 348.300781 383.917969 C 348.578125 385.046875 348.289062 386.214844 347.945312 387.097656 C 340.851562 382.75 330.570312 384.949219 323.667969 392.464844 C 323.023438 393.167969 322.5 393.867188 322.046875 394.570312 C 321.730469 393.925781 321.496094 393.152344 321.46875 392.3125 C 321.46875 392.203125 321.46875 392.105469 321.457031 391.996094 C 321.511719 390.222656 322.554688 388.445312 324.589844 386.710938 C 332.234375 380.175781 341.582031 378.730469 345.871094 381.125 Z M 333.097656 475.652344 C 336.410156 479.3125 343.449219 484.820312 355.875 484.820312 C 359.066406 484.820312 362.613281 484.460938 366.53125 483.609375 C 384.042969 479.808594 393.238281 476.121094 397.320312 474.167969 L 397.320312 521.652344 L 312.90625 521.652344 C 315.984375 515.058594 324.78125 495.925781 333.097656 475.652344 Z M 475.785156 424.382812 C 475.59375 420.5 474.300781 417.460938 471.949219 415.328125 C 469.875 413.453125 467.441406 412.753906 465.722656 412.492188 L 465.722656 398.644531 L 525.835938 398.644531 L 524.875 458.597656 L 509.3125 458.597656 C 508.269531 453.492188 504.488281 446.199219 495.402344 446.199219 C 486.398438 446.199219 482.054688 453.054688 480.625 457.828125 L 465.433594 457.828125 L 465.226562 438.820312 C 467.054688 438.753906 469.558594 438.269531 471.714844 436.453125 C 474.617188 434.003906 475.976562 429.957031 475.785156 424.382812 Z M 462.027344 481.570312 C 462.464844 481.96875 463.042969 482.148438 463.632812 482.082031 C 463.675781 482.082031 468.238281 481.613281 471.550781 484.449219 C 473.804688 486.375 475.058594 489.445312 475.277344 493.574219 C 475.46875 497.234375 474.5625 500.097656 472.582031 502.050781 C 468.898438 505.710938 462.546875 505.367188 462.492188 505.367188 C 461.914062 505.339844 461.367188 505.535156 460.953125 505.917969 C 460.539062 506.304688 460.308594 506.855469 460.308594 507.417969 L 460.308594 521.636719 L 401.460938 521.636719 L 401.460938 460.898438 L 417.210938 460.898438 C 418.269531 460.898438 419.164062 460.070312 419.261719 459.011719 C 419.300781 458.585938 420.359375 448.703125 431.960938 448.484375 C 432.070312 448.484375 432.183594 448.484375 432.304688 448.484375 C 436.910156 448.484375 440.210938 450.300781 442.148438 453.890625 C 443.714844 456.808594 443.8125 459.878906 443.8125 459.90625 C 443.839844 461.035156 444.746094 461.929688 445.875 461.929688 L 461.367188 461.929688 L 461.367188 480.03125 C 461.339844 480.621094 461.585938 481.1875 462.027344 481.570312 Z M 464.429688 509.46875 C 467.207031 509.277344 472.019531 508.4375 475.46875 505.023438 C 478.328125 502.203125 479.648438 498.28125 479.402344 493.378906 C 479.125 488.039062 477.367188 483.980469 474.191406 481.28125 C 471.222656 478.777344 467.714844 478.101562 465.476562 477.964844 L 465.476562 461.945312 L 482.261719 461.945312 C 483.261719 461.945312 484.117188 461.226562 484.292969 460.238281 C 484.363281 459.839844 486.164062 450.3125 495.429688 450.3125 C 504.460938 450.3125 505.464844 460.402344 505.503906 460.828125 C 505.601562 461.902344 506.480469 462.730469 507.566406 462.730469 L 524.859375 462.730469 L 524.859375 479.464844 C 518.109375 480.113281 512.035156 481.074219 507.25 482.453125 C 499.222656 484.804688 495.167969 490.226562 495.867188 494.125 C 496.210938 495.996094 497.765625 497.894531 501.078125 497.894531 C 501.3125 497.894531 501.546875 497.882812 501.792969 497.867188 C 504.445312 497.660156 506.507812 496.917969 508.488281 496.203125 C 510.988281 495.308594 513.546875 494.386719 517.644531 494.496094 C 512.390625 496.78125 506.769531 500.191406 502.371094 505.339844 C 500.296875 507.816406 499.550781 510.242188 500.171875 512.539062 C 500.789062 514.851562 502.617188 516.324219 503.980469 517.136719 C 503.855469 518.375 503.898438 520.082031 504.640625 521.664062 L 464.457031 521.664062 L 464.457031 509.46875 Z M 443.960938 318.898438 C 444.882812 318.953125 445.941406 318.886719 447.070312 318.566406 C 447.605469 318.417969 448.058594 318.046875 448.320312 317.550781 C 448.582031 317.054688 448.636719 316.476562 448.457031 315.9375 C 447.894531 314.21875 446.847656 309.621094 447.621094 306.582031 C 449.859375 308.355469 453.378906 309.84375 457.652344 308.617188 C 459.742188 308.011719 461.40625 306.980469 463.015625 305.972656 C 466.808594 303.605469 470.726562 301.171875 481.917969 302.972656 C 497.945312 305.5625 504.804688 309.871094 504.871094 309.910156 C 505.4375 310.269531 506.136719 310.351562 506.753906 310.089844 L 514.398438 307.035156 L 513.257812 309.691406 C 512.996094 310.308594 513.050781 311.027344 513.410156 311.589844 C 513.765625 312.167969 514.386719 312.527344 515.058594 312.554688 L 517.683594 312.691406 L 515.609375 314.496094 C 515.015625 315.003906 514.785156 315.816406 514.976562 316.574219 C 515.167969 317.328125 515.789062 317.90625 516.542969 318.074219 C 517.039062 318.183594 528.640625 320.90625 530.523438 340.410156 C 532.253906 358.371094 516.832031 369.410156 513.738281 371.433594 L 512.460938 368.363281 C 515.730469 366.371094 522.550781 361.566406 523.484375 355.828125 C 523.898438 353.226562 523.058594 350.734375 521.039062 348.613281 C 518.507812 345.957031 515.703125 344.734375 512.695312 344.980469 C 510.617188 345.144531 508.761719 346.027344 507.238281 347.101562 C 507.566406 341.730469 507.058594 334.21875 502.453125 330.433594 C 496.859375 325.820312 489.75 327.542969 482.234375 329.34375 C 479.496094 330.003906 476.679688 330.679688 473.722656 331.148438 C 464.363281 332.605469 457.1875 331.65625 455.480469 331.394531 C 455.441406 331.382812 455.414062 331.355469 455.371094 331.339844 C 454.972656 331.175781 446.121094 327.515625 443.960938 318.898438 Z M 456.691406 335.71875 C 459.964844 336.089844 466.382812 336.460938 474.371094 335.222656 C 477.488281 334.742188 480.402344 334.039062 483.207031 333.351562 C 490.261719 331.644531 495.828125 330.308594 499.839844 333.613281 C 504.433594 337.398438 503.265625 348.40625 502.425781 352.332031 C 502.21875 353.292969 502.726562 354.269531 503.636719 354.65625 C 504.542969 355.042969 505.601562 354.738281 506.152344 353.925781 C 507.015625 352.675781 509.929688 349.359375 513.050781 349.109375 C 514.769531 348.972656 516.40625 349.742188 518.054688 351.476562 C 519.195312 352.675781 519.636719 353.859375 519.417969 355.179688 C 518.714844 359.542969 511.582031 364.234375 508.898438 365.667969 C 507.964844 366.164062 507.566406 367.304688 507.964844 368.28125 L 513.765625 382.238281 C 514.152344 383.160156 515.128906 383.671875 516.101562 383.464844 C 516.160156 383.449219 518.578125 382.96875 522.730469 382.789062 C 521.367188 386.09375 520.171875 391.433594 519.554688 394.488281 L 480.335938 394.488281 L 482.273438 390.71875 C 482.617188 390.070312 482.574219 389.285156 482.175781 388.667969 C 481.777344 388.046875 481.0625 387.660156 480.347656 387.714844 C 475.402344 387.910156 471.316406 386.300781 467.882812 382.789062 C 456.679688 371.339844 456.484375 343.769531 456.691406 335.71875 Z M 467.964844 388.253906 C 470.699219 390.179688 473.75 391.351562 477.117188 391.734375 L 475.6875 394.503906 L 463.660156 394.503906 C 462.519531 394.503906 461.597656 395.425781 461.597656 396.566406 L 461.597656 414.40625 C 461.597656 414.96875 461.832031 415.503906 462.246094 415.890625 C 462.644531 416.277344 463.222656 416.484375 463.769531 416.46875 C 464.539062 416.441406 471.277344 416.386719 471.675781 424.5625 C 471.828125 428.761719 470.960938 431.691406 469.089844 433.273438 C 466.824219 435.214844 463.59375 434.609375 463.578125 434.609375 C 462.972656 434.484375 462.328125 434.636719 461.847656 435.035156 C 461.367188 435.433594 461.089844 436.027344 461.089844 436.660156 L 461.324219 457.828125 L 447.6875 457.828125 C 446.972656 453.628906 444.074219 444.382812 432.304688 444.382812 C 432.167969 444.382812 432.015625 444.382812 431.878906 444.382812 C 421.046875 444.589844 416.636719 451.773438 415.464844 456.78125 L 399.410156 456.78125 C 398.269531 456.78125 397.347656 457.703125 397.347656 458.847656 L 397.347656 469.515625 C 395.507812 470.574219 387 474.949219 365.675781 479.574219 C 345.539062 483.9375 336.960938 474.25 334.886719 471.304688 C 342.0625 453.507812 348.507812 435.460938 350.089844 424.78125 C 352.300781 409.863281 352.480469 402.707031 350.515625 398.769531 C 351.050781 397.832031 351.726562 396.320312 351.917969 394.558594 C 353.5 395.175781 355.699219 395.714844 358.613281 395.714844 C 362.28125 395.714844 367.09375 394.847656 373.167969 392.273438 L 375.738281 401.507812 C 375.710938 401.605469 375.683594 401.699219 375.683594 401.796875 C 375.601562 402.679688 373.609375 423.570312 374.652344 436.785156 C 374.738281 437.871094 375.644531 438.683594 376.703125 438.683594 C 376.757812 438.683594 376.8125 438.683594 376.867188 438.683594 C 378.007812 438.601562 378.847656 437.597656 378.765625 436.46875 C 378.460938 432.585938 378.433594 427.960938 378.542969 423.363281 L 381.375 421.683594 L 386.339844 439.507812 C 386.597656 440.417969 387.425781 441.023438 388.316406 441.023438 C 388.484375 441.023438 388.660156 441.007812 388.828125 440.953125 L 404.058594 437.074219 C 405.15625 436.796875 405.816406 435.683594 405.554688 434.582031 C 405.433594 434.058594 402.628906 421.808594 414.105469 418.988281 C 425.816406 416.109375 430.355469 427.09375 430.53125 427.5625 C 430.917969 428.539062 431.960938 429.0625 432.980469 428.800781 L 448.472656 424.671875 C 449.007812 424.519531 449.476562 424.164062 449.75 423.679688 C 450.023438 423.1875 450.078125 422.609375 449.914062 422.070312 L 444.277344 403.945312 C 448.539062 401.839844 453.859375 397.269531 453.902344 390.289062 Z M 378.941406 413.097656 L 380.195312 417.570312 L 378.667969 418.464844 C 378.75 416.59375 378.847656 414.789062 378.941406 413.097656 Z M 434.09375 378.878906 C 434.4375 379.925781 435.550781 380.503906 436.609375 380.214844 C 437.625 379.941406 446.617188 377.75 449.296875 387.070312 C 452.074219 396.675781 441.476562 400.667969 441.035156 400.832031 C 439.988281 401.207031 439.441406 402.332031 439.769531 403.394531 L 445.324219 421.230469 L 433.585938 424.371094 C 430.847656 419.207031 424.058594 412.296875 413.117188 414.984375 C 404.992188 416.976562 402.269531 422.566406 401.417969 426.886719 C 400.910156 429.476562 401.003906 431.910156 401.199219 433.535156 L 389.761719 436.453125 L 384.632812 418.039062 C 384.621094 417.96875 384.605469 417.898438 384.578125 417.832031 L 374.089844 380.1875 L 383.753906 377.574219 C 384.578125 379.003906 385.445312 380.492188 386.394531 381.976562 C 388.222656 384.867188 390.199219 386.328125 392.289062 386.328125 C 392.457031 386.328125 392.621094 386.3125 392.785156 386.300781 C 394.613281 386.105469 395.945312 384.828125 396.828125 383.574219 C 398.460938 384.828125 400.839844 386.175781 403.21875 385.789062 C 404.167969 385.636719 405.390625 385.183594 406.460938 383.945312 C 408.261719 384.714844 411.082031 385.5 413.527344 384.398438 C 414.558594 383.933594 415.824219 382.996094 416.636719 381.097656 C 417.75 381.261719 419.109375 381.234375 420.359375 380.574219 C 421.378906 380.035156 422.667969 378.867188 423.066406 376.375 C 423.480469 373.789062 423.960938 370.703125 423.496094 366.78125 L 429.554688 365.214844 Z M 416.167969 316.574219 C 415.878906 315.96875 415.617188 315.429688 415.371094 314.976562 C 415.34375 314.617188 415.21875 314.273438 415 313.957031 C 414.683594 313.53125 414.378906 313.144531 414.078125 312.800781 C 413.816406 312.429688 413.652344 312.25 413.609375 312.210938 C 413.472656 312.058594 413.292969 311.960938 413.128906 311.867188 C 409.378906 308.546875 405.707031 310.625 402.148438 312.648438 C 401.320312 313.117188 400.441406 313.613281 399.480469 314.109375 C 398.488281 314.617188 397.554688 315.167969 396.632812 315.71875 C 392.46875 318.195312 391.480469 318.347656 390.558594 317.164062 C 389.074219 310.875 404.621094 303.664062 410.285156 301.597656 C 411.355469 301.210938 411.90625 300.027344 411.523438 298.953125 C 411.136719 297.882812 409.953125 297.332031 408.882812 297.714844 C 406.695312 298.515625 390.488281 304.652344 387.011719 313.132812 C 386.542969 313.117188 385.953125 313.023438 385.582031 312.691406 C 385.253906 312.386719 385.085938 311.808594 385.128906 310.902344 C 385.128906 305.203125 397.609375 296.890625 405.472656 292.980469 C 406.492188 292.472656 406.917969 291.234375 406.40625 290.214844 C 405.898438 289.195312 404.660156 288.769531 403.644531 289.277344 C 401.886719 290.144531 389.800781 296.3125 384.054688 303.605469 C 384 303.605469 383.960938 303.59375 383.90625 303.605469 C 382.339844 303.703125 380.234375 303.34375 379.738281 302.65625 C 379.464844 302.273438 379.796875 301.390625 379.972656 300.964844 C 384.195312 289.707031 401.265625 284.832031 401.433594 284.792969 C 402.53125 284.488281 403.164062 283.347656 402.863281 282.246094 C 402.558594 281.144531 401.402344 280.496094 400.332031 280.816406 C 399.644531 281.007812 385.457031 285.039062 378.597656 294.824219 C 378.117188 294.261719 377.871094 293.601562 377.882812 292.773438 C 377.898438 289.953125 380.578125 285.933594 384.425781 282.988281 C 392.332031 276.933594 396.332031 275.777344 402.984375 277.621094 C 408.042969 279.023438 410.519531 288.261719 411.039062 291.703125 C 411.164062 292.515625 411.753906 293.175781 412.539062 293.378906 C 413.320312 293.601562 414.160156 293.324219 414.683594 292.691406 L 422.917969 282.605469 C 424.730469 282.660156 431.386719 283.277344 435.207031 288.261719 C 439.507812 293.863281 436.882812 299.851562 436.773438 300.082031 C 436.703125 300.222656 436.664062 300.359375 436.636719 300.496094 C 425.777344 308.78125 418.574219 314.605469 416.167969 316.574219 Z M 414.464844 258.722656 C 400.578125 262.851562 385.554688 262.785156 379.203125 262.507812 C 384.523438 253.425781 392.566406 244.339844 395.425781 241.230469 C 400.910156 246.570312 407.90625 253.175781 414.464844 258.722656 Z M 377.058594 266.542969 C 378.558594 266.636719 381.195312 266.777344 384.660156 266.777344 C 393.074219 266.777344 406.160156 265.964844 418.269531 261.847656 C 422.214844 265 425.84375 267.574219 428.675781 268.992188 L 414.132812 286.816406 C 412.785156 282.175781 409.859375 275.226562 404.070312 273.628906 C 396.800781 271.621094 391.851562 272.613281 384.304688 277.9375 C 379.945312 274.746094 376.714844 272.871094 374.941406 271.921875 C 375.4375 270.203125 376.152344 268.398438 377.058594 266.542969 Z M 356.207031 69.144531 C 372.867188 68.71875 385.472656 72.558594 393.707031 80.582031 C 401.96875 88.632812 405.980469 100.703125 405.980469 117.46875 C 405.980469 147.691406 415.867188 163.90625 435.34375 165.652344 C 457.105469 167.59375 461.875 173.335938 462.507812 181.964844 C 463.207031 191.363281 455.398438 199.691406 455.332031 199.761719 C 454.917969 200.1875 454.710938 200.777344 454.765625 201.382812 C 454.824219 201.976562 455.136719 202.527344 455.621094 202.871094 C 455.714844 202.941406 465.597656 210.179688 465.597656 220.570312 C 465.597656 228.761719 459.566406 233.496094 457.007812 235.132812 C 444.375 217.390625 426.078125 194.695312 414.820312 186.90625 C 401.871094 177.929688 387.863281 175.964844 378.585938 174.65625 C 375.109375 174.175781 372.109375 173.746094 370.433594 173.101562 C 367.328125 171.917969 368.070312 160.945312 369.816406 153.101562 L 375.519531 148.269531 C 380.179688 149.855469 385.511719 149.191406 389.707031 146.441406 C 393.390625 144.03125 395.507812 140.4375 395.507812 136.597656 C 395.507812 129.386719 387.054688 127.226562 381.539062 127.046875 L 335.121094 89.5 C 334.238281 88.785156 332.933594 88.921875 332.21875 89.804688 C 328.605469 94.277344 326.046875 99.011719 324.234375 103.582031 C 321.085938 100.828125 317.59375 99.972656 314.085938 100.167969 C 314.292969 95.761719 317.140625 70.160156 356.207031 69.144531 Z M 286.238281 170.871094 C 288.617188 169.355469 290.871094 167.953125 292.972656 166.6875 L 292.285156 170.15625 C 290.320312 170.347656 288.3125 170.566406 286.238281 170.871094 Z M 297.730469 163.890625 C 302.664062 161.097656 306.238281 159.472656 307.613281 159.585938 C 316.027344 160.175781 319.378906 153.445312 322.320312 147.484375 C 322.707031 146.714844 323.078125 145.957031 323.460938 145.230469 C 323.890625 146.769531 324.507812 148.601562 325.414062 150.5 C 328.34375 156.613281 332.949219 160.628906 338.761719 162.226562 C 339.449219 165.40625 339.835938 169.742188 338.789062 171.394531 C 338.582031 171.722656 338.390625 171.820312 338.15625 171.863281 C 337.058594 172.054688 334.253906 171.683594 330.980469 171.226562 C 323.792969 170.238281 312.121094 168.667969 296.546875 169.785156 Z M 330.433594 175.300781 C 334.488281 175.851562 337.167969 176.226562 338.914062 175.894531 C 340.328125 175.632812 341.484375 174.835938 342.28125 173.582031 C 344.824219 169.550781 342.886719 161.539062 342.460938 159.96875 C 342.253906 159.210938 341.648438 158.632812 340.878906 158.484375 C 328.453125 155.921875 326.777344 141.320312 326.707031 140.660156 C 326.691406 140.507812 326.664062 140.371094 326.625 140.234375 C 327.585938 139.132812 328.660156 138.265625 329.949219 137.726562 C 332.753906 136.585938 333.277344 134.410156 332.878906 132.800781 C 333.167969 132.8125 333.441406 132.839844 333.730469 132.839844 C 338.15625 132.839844 342.046875 130.53125 344.273438 127.046875 C 344.839844 133.449219 350.214844 138.484375 356.742188 138.484375 C 362.886719 138.484375 368 134.039062 369.058594 128.191406 L 379.972656 130.96875 C 380.234375 131.078125 380.511719 131.164062 380.796875 131.164062 C 380.910156 131.164062 391.382812 131.339844 391.382812 136.597656 C 391.382812 139.023438 389.953125 141.347656 387.453125 142.984375 C 384.027344 145.230469 379.628906 145.613281 375.945312 144.003906 C 375.21875 143.6875 374.394531 143.8125 373.789062 144.320312 L 366.625 150.390625 C 366.296875 150.679688 366.050781 151.066406 365.953125 151.492188 C 365.898438 151.710938 364.703125 156.859375 364.304688 162.40625 C 363.710938 170.773438 365.238281 175.535156 368.964844 176.953125 C 371.078125 177.765625 374.132812 178.191406 378.007812 178.742188 C 378.765625 178.855469 379.574219 178.964844 380.398438 179.085938 C 375.453125 185.613281 358.679688 205.210938 336.125 205.210938 C 332.425781 205.210938 328.578125 204.6875 324.605469 203.492188 C 320.769531 202.335938 318.582031 200.53125 317.949219 197.972656 C 316.191406 190.898438 325.964844 179.28125 330.007812 175.261719 C 330.15625 175.261719 330.308594 175.289062 330.433594 175.300781 Z M 315.957031 129.566406 C 314.84375 127.007812 313.316406 124.625 313.234375 124.488281 C 313.152344 124.347656 313.042969 124.238281 312.933594 124.128906 C 312.933594 123.222656 312.769531 122.230469 312.410156 121.144531 C 311.449219 118.390625 310.074219 116.285156 308.464844 114.644531 C 311.242188 113.296875 314.925781 111.949219 316.632812 112.304688 C 317.976562 112.59375 319.777344 112.664062 321.496094 112.390625 C 319.53125 120.910156 319.902344 127.378906 319.929688 127.859375 C 319.929688 127.859375 319.929688 127.859375 319.929688 127.871094 C 318.417969 128.230469 317.097656 128.824219 315.957031 129.566406 Z M 299.078125 117.359375 C 295.929688 115.390625 293.261719 114.949219 291.171875 115.128906 C 291.308594 114.90625 291.460938 114.6875 291.640625 114.480469 C 291.792969 114.480469 291.957031 114.46875 292.109375 114.425781 C 292.617188 114.300781 304.671875 111.398438 308.519531 122.476562 C 309.058594 124.074219 308.796875 125.203125 308.34375 125.972656 C 306.074219 121.898438 300.480469 118.238281 299.078125 117.359375 Z M 296.699219 124.636719 C 292.933594 122.726562 289.425781 123.222656 286.898438 124.335938 C 286.9375 122.875 287.253906 121.335938 288.285156 120.621094 C 288.339844 120.59375 288.394531 120.550781 288.449219 120.523438 C 288.574219 120.453125 288.699219 120.386719 288.851562 120.34375 C 289.222656 120.21875 289.507812 119.988281 289.742188 119.710938 C 290.9375 119.148438 293.332031 118.636719 296.90625 120.867188 C 302.570312 124.390625 305.386719 128.121094 305.195312 129.332031 C 305.152344 129.566406 304.742188 129.882812 303.929688 130.15625 C 301.828125 127.433594 298.128906 125.367188 296.699219 124.636719 Z M 369.210938 124.527344 C 369.113281 123.621094 368.894531 122.738281 368.605469 121.886719 L 373.101562 125.519531 Z M 365.71875 125.933594 C 365.71875 130.875 361.703125 134.890625 356.769531 134.890625 C 351.835938 134.890625 347.820312 130.875 347.820312 125.933594 C 347.820312 120.992188 351.835938 116.972656 356.769531 116.972656 C 361.703125 116.972656 365.71875 120.992188 365.71875 125.933594 Z M 356.769531 113.394531 C 352.34375 113.394531 348.453125 115.707031 346.226562 119.1875 C 345.664062 112.789062 340.289062 107.75 333.757812 107.75 C 330.996094 107.75 328.453125 108.660156 326.390625 110.171875 C 327.875 105.011719 330.292969 99.339844 334.199219 94.027344 L 358.242188 113.476562 C 357.746094 113.433594 357.25 113.394531 356.769531 113.394531 Z M 324.796875 120.304688 C 324.796875 115.363281 328.808594 111.34375 333.746094 111.34375 C 338.679688 111.34375 342.695312 115.363281 342.695312 120.304688 C 342.695312 125.246094 338.679688 129.261719 333.746094 129.261719 C 328.808594 129.261719 324.796875 125.246094 324.796875 120.304688 Z M 322.292969 107.40625 C 322.433594 107.558594 322.527344 107.683594 322.582031 107.777344 C 321.839844 108.246094 319.546875 108.714844 317.484375 108.273438 C 313.261719 107.378906 306.363281 111.039062 305.027344 111.785156 C 304.945312 111.824219 304.890625 111.878906 304.824219 111.933594 C 302.980469 110.957031 301.027344 110.367188 299.117188 110.078125 C 299.738281 109.761719 300.355469 109.445312 301 109.113281 C 309.675781 104.613281 316.769531 101.625 322.292969 107.40625 Z M 284.449219 143.703125 C 285.523438 143.328125 286.085938 142.160156 285.714844 141.085938 C 285.6875 141.003906 282.964844 132.71875 286.511719 129.457031 C 286.527344 129.441406 286.527344 129.429688 286.539062 129.414062 C 286.554688 129.414062 286.554688 129.402344 286.566406 129.402344 C 286.71875 129.261719 290.195312 125.960938 294.828125 128.3125 C 299.820312 130.847656 301.46875 133.515625 301.304688 134.011719 C 301.289062 134.039062 301.195312 134.175781 300.878906 134.34375 C 299.160156 135.265625 294.222656 132.925781 291.335938 130.886719 C 290.402344 130.226562 289.125 130.460938 288.464844 131.382812 C 287.804688 132.320312 288.023438 133.597656 288.960938 134.257812 C 290.167969 135.113281 295.449219 138.664062 299.886719 138.664062 C 300.945312 138.664062 301.949219 138.457031 302.84375 137.976562 C 305.085938 136.765625 305.429688 134.988281 305.441406 133.996094 C 307.570312 133.226562 308.5625 132.042969 309 130.929688 C 309.6875 130.558594 310.472656 129.953125 311.171875 129.113281 C 311.75 130.199219 312.34375 131.4375 312.699219 132.511719 C 310.238281 135.527344 309.332031 138.800781 309.261719 139.035156 C 308.972656 140.136719 309.632812 141.265625 310.734375 141.554688 C 311.847656 141.84375 312.960938 141.183594 313.25 140.09375 C 313.261719 140.027344 315.242188 132.925781 321.320312 131.78125 C 325.46875 130.996094 328.425781 132.800781 328.863281 133.679688 C 328.78125 133.738281 328.644531 133.820312 328.425781 133.914062 C 323.433594 135.9375 320.988281 140.878906 318.636719 145.667969 C 315.503906 152.015625 313.277344 155.839844 307.929688 155.484375 C 303.378906 155.167969 288.90625 164.015625 275.734375 172.8125 C 275.640625 172.867188 275.542969 172.933594 275.445312 173.003906 C 272.214844 175.164062 269.082031 177.3125 266.195312 179.320312 C 263.984375 179.472656 255.5 179.636719 250.828125 173.597656 C 247.351562 169.09375 249.796875 160.535156 251.199219 157.175781 C 267.226562 149.796875 284.203125 143.796875 284.449219 143.703125 Z M 295.40625 250.203125 C 295.242188 250.136719 278.332031 242.8125 278.332031 228.59375 C 278.332031 214.117188 290.527344 205.03125 290.652344 204.9375 C 291.570312 204.261719 291.777344 202.980469 291.105469 202.058594 C 290.429688 201.136719 289.152344 200.929688 288.230469 201.605469 C 287.886719 201.851562 282.992188 205.484375 279.074219 211.886719 C 272.273438 212.546875 265.191406 212.683594 257.988281 212.273438 C 244.75 211.5 231.515625 209.339844 224.367188 198.839844 C 220.886719 193.730469 219.652344 188.183594 220.777344 182.804688 C 222.113281 176.5 226.523438 170.71875 233.230469 166.535156 C 236.929688 164.222656 241.34375 161.882812 246.015625 159.613281 C 244.765625 164.167969 243.761719 171.242188 247.542969 176.128906 C 251.210938 180.863281 256.449219 182.625 260.601562 183.230469 C 257.011719 185.777344 254.167969 187.828125 252.601562 188.96875 C 251.679688 189.644531 251.472656 190.925781 252.148438 191.847656 C 252.546875 192.398438 253.179688 192.699219 253.808594 192.699219 C 254.238281 192.699219 254.664062 192.574219 255.019531 192.300781 C 259.210938 189.246094 263.542969 186.175781 267.816406 183.203125 C 268.050781 183.09375 268.257812 182.957031 268.4375 182.777344 C 271.53125 180.628906 274.59375 178.550781 277.578125 176.554688 C 298.511719 172.355469 314.554688 173.390625 324.949219 174.613281 C 320.535156 179.488281 311.847656 190.441406 313.949219 198.976562 C 314.953125 203.023438 318.144531 205.871094 323.421875 207.46875 C 327.820312 208.789062 332.066406 209.367188 336.136719 209.367188 C 363.105469 209.367188 382.132812 183.878906 384.976562 179.84375 C 393.15625 181.277344 403.191406 183.890625 412.46875 190.332031 C 429.242188 201.960938 464.335938 250.671875 466.851562 258.460938 C 469.105469 265.46875 471.910156 274.167969 450.546875 290.023438 C 447.414062 292.347656 444.484375 294.550781 441.707031 296.644531 C 441.929688 293.601562 441.40625 289.625 438.4375 285.769531 C 434.820312 281.0625 429.527344 279.398438 425.996094 278.804688 L 437.625 264.546875 C 438.339844 263.664062 438.21875 262.359375 437.335938 261.640625 C 436.457031 260.925781 435.164062 261.050781 434.4375 261.929688 L 431.359375 265.703125 C 419.988281 260.953125 388.785156 228.789062 388.46875 228.457031 C 387.671875 227.632812 386.367188 227.617188 385.554688 228.417969 C 384.742188 229.214844 384.714844 230.523438 385.515625 231.335938 C 385.886719 231.707031 388.550781 234.472656 392.484375 238.355469 C 388.484375 242.675781 374.367188 258.574219 370.914062 271.015625 L 302.347656 272.253906 L 296.589844 251.566406 C 296.425781 250.949219 295.984375 250.453125 295.40625 250.203125 Z M 301.949219 276.382812 L 372.097656 275.117188 C 373.128906 275.625 376.234375 277.25 380.867188 280.554688 C 377.390625 283.527344 373.761719 288.179688 373.746094 292.761719 C 373.734375 295.101562 374.695312 297.082031 376.511719 298.527344 C 376.371094 298.832031 376.25 299.132812 376.125 299.449219 C 374.96875 302.191406 375.628906 304.019531 376.371094 305.066406 C 377.625 306.8125 379.851562 307.445312 381.636719 307.652344 C 381.226562 308.714844 380.992188 309.773438 380.992188 310.820312 C 380.894531 313.460938 381.941406 314.976562 382.832031 315.773438 C 383.960938 316.777344 385.320312 317.125 386.394531 317.234375 C 386.449219 317.714844 386.542969 318.210938 386.695312 318.707031 C 386.75 318.898438 386.847656 319.078125 386.957031 319.242188 C 388.359375 321.292969 389.996094 322.023438 391.671875 322.023438 C 394.105469 322.023438 396.648438 320.507812 398.722656 319.269531 C 399.574219 318.761719 400.46875 318.238281 401.335938 317.785156 C 402.351562 317.261719 403.289062 316.738281 404.152344 316.242188 C 407.851562 314.136719 409.117188 313.53125 410.765625 315.304688 C 411.988281 317.09375 417.953125 327.320312 423.246094 362.558594 L 422.65625 362.707031 C 421.914062 359.957031 420.691406 356.859375 418.722656 353.320312 C 418.257812 352.46875 417.789062 351.585938 417.308594 350.679688 C 411.742188 340.175781 404.113281 325.792969 377.582031 334.328125 C 354.128906 341.871094 344.988281 360.628906 342.515625 366.949219 C 335.023438 362.226562 323.710938 363.988281 319.285156 365.996094 C 315.476562 367.730469 313.550781 370.734375 314.375 373.648438 C 315.105469 376.238281 318.199219 378.703125 324.660156 377.875 C 327.984375 377.449219 329.855469 377.722656 330.832031 378.070312 C 327.722656 379.363281 324.660156 381.21875 321.894531 383.558594 C 319.574219 385.542969 318.144531 387.703125 317.578125 389.988281 C 316.863281 390.054688 316.175781 390.25 315.546875 390.484375 C 314.625 381.785156 310.859375 378.976562 309.140625 378.136719 C 307.1875 377.1875 305.113281 377.296875 303.597656 378.453125 C 302.140625 379.570312 301.484375 381.453125 301.855469 383.503906 C 302.019531 384.371094 302.15625 385.144531 302.292969 385.84375 C 303.035156 389.738281 303.40625 391.679688 303.628906 400.503906 C 303.832031 408.871094 307.847656 412.875 310.320312 414.542969 C 305.648438 425.703125 296.257812 443.058594 288.148438 457.429688 C 286.582031 447.175781 282.527344 424.546875 275.515625 410.882812 C 273.082031 406.117188 269.589844 402.128906 265.6875 398.78125 C 265.824219 390.34375 267.832031 381.289062 269.054688 376.527344 C 269.507812 376.800781 270.003906 377.0625 270.582031 377.257812 C 272.945312 378.054688 275.613281 377.695312 278.5 376.183594 C 279.941406 375.425781 280.945312 374.269531 281.386719 372.839844 C 282.457031 369.316406 280.039062 364.855469 277.46875 360.132812 C 276.367188 358.109375 275.253906 356.046875 274.472656 354.160156 C 274.527344 353.96875 274.566406 353.777344 274.582031 353.570312 C 275.0625 321.253906 298.03125 282.714844 301.949219 276.382812 Z M 104.539062 412.988281 C 105.28125 412.464844 105.585938 411.527344 105.308594 410.675781 C 105.035156 409.820312 104.238281 409.242188 103.34375 409.242188 C 103.34375 409.242188 103.328125 409.242188 103.328125 409.242188 C 103.21875 409.203125 100.292969 409.230469 98.230469 406.863281 C 96.265625 404.589844 95.632812 400.886719 96.359375 395.835938 C 98.023438 384.398438 106.421875 384.757812 120.058594 386.683594 C 121.476562 386.890625 122.890625 387.082031 124.265625 387.25 C 139.8125 389.148438 166.164062 379.101562 175.042969 343.578125 C 180.117188 323.277344 189.78125 308.546875 203.003906 301.007812 C 213.863281 294.8125 226.496094 293.808594 240.585938 298.019531 C 270.816406 307.0625 269.769531 336.476562 269.371094 347.539062 C 269.328125 348.546875 269.300781 349.398438 269.300781 350.046875 C 269.300781 353.734375 271.613281 357.988281 273.851562 362.089844 C 275.804688 365.679688 278.019531 369.753906 277.453125 371.613281 C 277.371094 371.875 277.207031 372.191406 276.617188 372.496094 C 274.773438 373.445312 273.207031 373.734375 271.957031 373.332031 C 270.539062 372.878906 269.894531 371.65625 269.878906 371.640625 C 269.878906 371.628906 269.867188 371.628906 269.867188 371.613281 C 269.785156 371.449219 269.671875 371.296875 269.550781 371.160156 C 269.523438 371.132812 269.496094 371.105469 269.480469 371.078125 C 269.359375 370.953125 269.21875 370.84375 269.054688 370.746094 C 269.042969 370.746094 269.042969 370.734375 269.042969 370.734375 C 268.917969 370.664062 268.78125 370.59375 268.628906 370.554688 C 268.585938 370.539062 268.558594 370.539062 268.519531 370.527344 C 268.476562 370.511719 268.4375 370.511719 268.394531 370.5 C 268.230469 370.472656 268.066406 370.457031 267.914062 370.472656 C 267.902344 370.472656 267.871094 370.472656 267.859375 370.472656 C 267.859375 370.472656 267.84375 370.472656 267.84375 370.472656 C 267.667969 370.484375 267.488281 370.539062 267.324219 370.59375 C 267.28125 370.609375 267.226562 370.636719 267.1875 370.648438 C 267.019531 370.71875 266.871094 370.816406 266.730469 370.925781 C 266.71875 370.9375 266.703125 370.953125 266.691406 370.964844 C 266.566406 371.078125 266.457031 371.199219 266.359375 371.339844 C 266.332031 371.367188 266.320312 371.40625 266.292969 371.433594 C 266.195312 371.585938 266.128906 371.738281 266.070312 371.917969 C 266.058594 371.945312 266.03125 372.027344 266.003906 372.136719 C 265.589844 373.429688 262.648438 381.921875 255.308594 383.148438 C 249.207031 384.164062 247.226562 380.410156 246.703125 378.976562 C 257.976562 363.917969 254.003906 336.996094 253.808594 335.757812 C 253.699219 335.003906 253.179688 334.382812 252.449219 334.121094 C 251.734375 333.875 250.9375 334.039062 250.375 334.546875 C 244.558594 339.914062 236.105469 343.949219 227.71875 346.90625 C 227.390625 346.988281 227.058594 347.101562 226.757812 347.25 C 215.554688 351.089844 204.667969 353.03125 200.570312 353.679688 C 199.101562 349.179688 195.648438 340.632812 190.589844 340.175781 C 187.9375 339.914062 185.574219 341.816406 183.609375 345.75 C 181.296875 350.363281 181.011719 354.476562 182.726562 357.988281 C 184.914062 362.417969 189.765625 364.484375 192.363281 365.308594 C 191.59375 379.308594 183.402344 381.8125 162.960938 384.6875 C 142.246094 387.605469 134.023438 394.40625 122.382812 409.503906 C 118.535156 414.5 110.355469 428.554688 101.15625 445.082031 C 88.9375 424.492188 103.878906 413.453125 104.539062 412.988281 Z M 125.625 412.035156 C 137.050781 397.214844 144.5 391.472656 163.511719 388.789062 C 165.683594 388.488281 167.757812 388.171875 169.738281 387.855469 C 171.152344 389.105469 177.324219 395.285156 176.898438 407.867188 C 176.898438 407.949219 176.914062 408.03125 176.914062 408.113281 C 170.246094 413.621094 166.398438 420.597656 164.886719 423.765625 C 154.371094 421.808594 146.039062 436.371094 145.683594 436.992188 L 96.277344 521.636719 L 64.648438 521.636719 C 71.039062 509.484375 115.277344 425.484375 125.625 412.035156 Z M 125.625 412.035156 " fill-opacity="1" fill-rule="nonzero"/></g><path fill="#000000" d="M 227.570312 359.652344 C 228.75 360.160156 230.332031 359.15625 231.074219 357.410156 C 231.832031 355.660156 231.488281 353.816406 230.289062 353.308594 C 229.109375 352.796875 227.527344 353.804688 226.785156 355.550781 C 226.027344 357.3125 226.371094 359.144531 227.570312 359.652344 Z M 227.570312 359.652344 " fill-opacity="1" fill-rule="nonzero"/><path fill="#000000" d="M 243.542969 366.398438 C 244.722656 366.90625 246.304688 365.902344 247.046875 364.152344 C 247.804688 362.40625 247.460938 360.5625 246.265625 360.050781 C 245.082031 359.542969 243.515625 360.546875 242.757812 362.296875 C 242.003906 364.042969 242.359375 365.886719 243.542969 366.398438 Z M 243.542969 366.398438 " fill-opacity="1" fill-rule="nonzero"/><path fill="#000000" d="M 231.445312 366.851562 C 231.761719 367.386719 232.117188 367.898438 232.585938 368.363281 C 233.066406 368.832031 233.617188 369.257812 234.316406 369.535156 C 235.003906 369.824219 235.84375 369.988281 236.640625 369.78125 C 237.453125 369.578125 238.097656 369.164062 238.566406 368.421875 C 238.660156 368.269531 238.71875 368.074219 238.691406 367.882812 C 238.648438 367.429688 238.234375 367.085938 237.78125 367.125 L 237.261719 367.179688 C 236.929688 367.207031 236.503906 367.304688 236.214844 367.292969 C 235.914062 367.292969 235.597656 367.265625 235.253906 367.140625 C 234.910156 367.015625 234.539062 366.769531 234.140625 366.535156 C 233.769531 366.246094 233.371094 365.941406 232.957031 365.613281 L 232.886719 365.558594 C 232.574219 365.308594 232.132812 365.269531 231.773438 365.488281 C 231.320312 365.765625 231.171875 366.371094 231.445312 366.851562 Z M 231.445312 366.851562 " fill-opacity="1" fill-rule="nonzero"/><path fill="#000000" d="M 225.136719 372.949219 C 225.546875 373.472656 225.90625 374.050781 226.414062 374.515625 C 227.320312 375.550781 228.542969 376.308594 229.808594 376.855469 C 231.101562 377.40625 232.503906 377.667969 233.878906 377.628906 C 235.265625 377.585938 236.558594 377.351562 237.890625 376.734375 C 238.289062 376.554688 238.539062 376.113281 238.457031 375.644531 C 238.359375 375.109375 237.835938 374.75 237.300781 374.847656 L 237.164062 374.875 C 236.160156 375.054688 234.976562 375.191406 233.90625 375.109375 C 232.820312 375.054688 231.761719 374.847656 230.773438 374.449219 C 229.796875 374.050781 228.832031 373.527344 228.007812 372.796875 C 227.144531 372.109375 226.429688 371.214844 225.671875 370.320312 L 225.617188 370.25 C 225.371094 369.949219 224.929688 369.851562 224.558594 370.03125 C 224.132812 370.25 223.96875 370.773438 224.1875 371.199219 C 224.476562 371.792969 224.777344 372.382812 225.136719 372.949219 Z M 225.136719 372.949219 " fill-opacity="1" fill-rule="nonzero"/><path fill="#000000" d="M 485.957031 348.929688 C 484.515625 349.152344 483.605469 351.078125 483.9375 353.210938 C 484.265625 355.359375 485.710938 356.914062 487.152344 356.695312 C 488.597656 356.472656 489.503906 354.546875 489.175781 352.414062 C 488.84375 350.265625 487.402344 348.710938 485.957031 348.929688 Z M 485.957031 348.929688 " fill-opacity="1" fill-rule="nonzero"/><path fill="#000000" d="M 469.667969 355.25 C 469.339844 353.101562 467.894531 351.546875 466.453125 351.765625 C 465.007812 351.988281 464.101562 353.914062 464.429688 356.046875 C 464.761719 358.195312 466.203125 359.75 467.648438 359.527344 C 469.089844 359.308594 470 357.394531 469.667969 355.25 Z M 469.667969 355.25 " fill-opacity="1" fill-rule="nonzero"/><path fill="#000000" d="M 474.257812 365.226562 C 475.085938 365.667969 476.058594 365.75 476.898438 365.640625 C 477.765625 365.53125 478.480469 365.199219 479.140625 364.839844 C 479.785156 364.46875 480.335938 364.003906 480.832031 363.507812 C 481.148438 363.191406 481.257812 362.695312 481.0625 362.253906 C 480.816406 361.675781 480.144531 361.414062 479.578125 361.664062 L 479.496094 361.703125 C 478.945312 361.9375 478.4375 362.171875 477.945312 362.378906 C 477.449219 362.53125 476.96875 362.695312 476.542969 362.707031 C 476.117188 362.761719 475.773438 362.707031 475.429688 362.613281 C 475.097656 362.542969 474.671875 362.324219 474.316406 362.183594 L 473.75 361.980469 C 473.558594 361.910156 473.339844 361.894531 473.132812 361.964844 C 472.636719 362.128906 472.363281 362.667969 472.527344 363.164062 C 472.84375 364.125 473.421875 364.773438 474.257812 365.226562 Z M 474.257812 365.226562 " fill-opacity="1" fill-rule="nonzero"/><path fill="#000000" d="M 470.726562 370.9375 C 470.34375 371.421875 470.410156 372.136719 470.90625 372.523438 C 472.199219 373.554688 473.542969 374.226562 475.070312 374.65625 C 476.570312 375.082031 478.191406 375.207031 479.773438 374.957031 C 481.339844 374.710938 482.890625 374.214844 484.183594 373.347656 C 484.871094 372.976562 485.433594 372.453125 486.039062 371.984375 C 486.589844 371.460938 487.097656 370.910156 487.59375 370.347656 C 487.894531 370.015625 487.9375 369.507812 487.664062 369.121094 C 487.347656 368.679688 486.726562 368.570312 486.289062 368.886719 L 486.207031 368.941406 C 485.117188 369.714844 484.074219 370.484375 482.917969 370.992188 C 481.792969 371.558594 480.597656 371.859375 479.402344 372.027344 C 478.203125 372.175781 476.96875 372.109375 475.757812 371.859375 C 474.5625 371.613281 473.285156 371.171875 472.238281 370.664062 L 472.101562 370.59375 C 471.632812 370.402344 471.070312 370.527344 470.726562 370.9375 Z M 470.726562 370.9375 " fill-opacity="1" fill-rule="nonzero"/><path fill="#000000" d="M 468.417969 347.347656 C 469.160156 347.484375 469.875 347.800781 470.726562 348.035156 L 470.851562 348.078125 C 471.140625 348.160156 471.46875 348.105469 471.730469 347.886719 C 472.144531 347.539062 472.199219 346.933594 471.855469 346.523438 C 471.195312 345.738281 470.355469 345.0625 469.339844 344.664062 C 468.347656 344.222656 467.195312 344.070312 466.109375 344.167969 C 465.007812 344.265625 463.949219 344.609375 463.042969 345.160156 C 462.136719 345.710938 461.378906 346.371094 460.773438 347.292969 C 460.652344 347.484375 460.625 347.734375 460.71875 347.96875 C 460.871094 348.324219 461.296875 348.492188 461.652344 348.339844 L 461.765625 348.285156 C 462.507812 347.96875 463.304688 347.625 464.058594 347.417969 C 464.816406 347.210938 465.558594 347.085938 466.285156 347.085938 C 466.988281 347.085938 467.703125 347.140625 468.417969 347.347656 Z M 468.417969 347.347656 " fill-opacity="1" fill-rule="nonzero"/><path fill="#000000" d="M 482.316406 346.027344 L 482.425781 345.972656 C 483.167969 345.65625 483.964844 345.3125 484.71875 345.105469 C 485.476562 344.898438 486.21875 344.773438 486.949219 344.773438 C 487.664062 344.789062 488.378906 344.828125 489.089844 345.035156 C 489.835938 345.171875 490.550781 345.488281 491.402344 345.722656 L 491.523438 345.765625 C 491.8125 345.847656 492.144531 345.792969 492.40625 345.574219 C 492.816406 345.226562 492.871094 344.621094 492.527344 344.210938 C 491.867188 343.425781 491.03125 342.75 490.011719 342.351562 C 489.023438 341.910156 487.867188 341.761719 486.78125 341.855469 C 485.683594 341.953125 484.625 342.296875 483.71875 342.847656 C 482.808594 343.398438 482.054688 344.058594 481.449219 344.980469 C 481.324219 345.171875 481.296875 345.421875 481.394531 345.65625 C 481.546875 346.011719 481.957031 346.179688 482.316406 346.027344 Z M 482.316406 346.027344 " fill-opacity="1" fill-rule="nonzero"/><path fill="#000000" d="M 346.035156 146.730469 C 346.777344 146.632812 347.4375 146.316406 348.109375 146.082031 C 348.757812 145.792969 349.375 145.449219 349.980469 145.089844 C 350.390625 144.84375 350.640625 144.363281 350.542969 143.867188 C 350.433594 143.21875 349.816406 142.777344 349.167969 142.890625 L 348.976562 142.917969 C 348.371094 143.011719 347.808594 143.21875 347.242188 143.316406 C 346.667969 143.371094 346.117188 143.535156 345.554688 143.523438 C 344.441406 143.632812 343.367188 143.496094 342.351562 143.261719 C 341.320312 143.011719 340.328125 142.585938 339.394531 142.023438 C 338.472656 141.472656 337.511719 140.714844 336.769531 140.039062 L 336.605469 139.890625 C 336.179688 139.503906 335.53125 139.40625 335.011719 139.710938 C 334.363281 140.082031 334.128906 140.921875 334.5 141.566406 C 335.296875 142.957031 336.246094 143.988281 337.457031 144.886719 C 338.652344 145.765625 340.054688 146.414062 341.554688 146.714844 C 343.050781 147.03125 344.605469 147.085938 346.035156 146.730469 Z M 346.035156 146.730469 " fill-opacity="1" fill-rule="nonzero"/><path fill="#000000" d="M 336.109375 120.234375 C 336.550781 118.113281 335.753906 116.144531 334.324219 115.84375 C 332.894531 115.539062 331.367188 117.011719 330.914062 119.148438 C 330.460938 121.28125 331.269531 123.234375 332.699219 123.539062 C 334.144531 123.839844 335.667969 122.355469 336.109375 120.234375 Z M 336.109375 120.234375 " fill-opacity="1" fill-rule="nonzero"/><path fill="#000000" d="M 354.488281 125.257812 C 354.046875 127.378906 354.84375 129.347656 356.273438 129.648438 C 357.703125 129.953125 359.230469 128.480469 359.683594 126.34375 C 360.125 124.226562 359.328125 122.257812 357.898438 121.953125 C 356.453125 121.664062 354.929688 123.136719 354.488281 125.257812 Z M 354.488281 125.257812 " fill-opacity="1" fill-rule="nonzero"/></svg>