<svg xmlns="http://www.w3.org/2000/svg" xmlns:xlink="http://www.w3.org/1999/xlink" width="940" zoomAndPan="magnify" viewBox="0 0 705 591.000005" height="788" preserveAspectRatio="xMidYMid meet" version="1.0"><defs><clipPath id="64273b4dfe"><path d="M 74 14 L 630.988281 14 L 630.988281 576 L 74 576 Z M 74 14 " clip-rule="nonzero"/></clipPath></defs><g clip-path="url(#64273b4dfe)"><path fill="#0e324d" d="M 600.101562 103.175781 C 541.90625 103.046875 483.714844 102.972656 425.523438 102.953125 L 395.429688 102.953125 C 394.710938 102.898438 393.996094 102.921875 393.285156 103.023438 C 392.570312 103.125 391.875 103.300781 391.199219 103.554688 C 390.527344 103.804688 389.886719 104.125 389.277344 104.515625 C 388.671875 104.902344 388.113281 105.351562 387.605469 105.863281 C 387.09375 106.371094 386.644531 106.929688 386.257812 107.539062 C 385.867188 108.144531 385.546875 108.785156 385.296875 109.460938 C 385.046875 110.136719 384.871094 110.832031 384.769531 111.542969 C 384.667969 112.257812 384.644531 112.972656 384.695312 113.691406 L 385.050781 177.335938 C 357.148438 170.3125 336.800781 176.25 322.925781 195.457031 C 322.160156 196.511719 321.433594 197.59375 320.75 198.703125 C 320.066406 199.8125 319.425781 200.945312 318.824219 202.105469 C 318.226562 203.261719 317.671875 204.441406 317.164062 205.644531 C 316.652344 206.84375 316.1875 208.058594 315.769531 209.296875 C 315.351562 210.53125 314.980469 211.78125 314.65625 213.042969 C 314.332031 214.304688 314.058594 215.582031 313.832031 216.863281 C 313.601562 218.148438 313.421875 219.4375 313.292969 220.738281 C 313.164062 222.035156 313.082031 223.335938 313.050781 224.636719 C 313.019531 225.941406 313.035156 227.246094 313.101562 228.546875 C 313.167969 229.851562 313.28125 231.148438 313.445312 232.441406 C 313.609375 233.734375 313.824219 235.019531 314.085938 236.296875 C 314.347656 237.578125 314.65625 238.84375 315.011719 240.097656 C 315.367188 241.351562 315.773438 242.589844 316.222656 243.8125 C 316.671875 245.039062 317.167969 246.242188 317.710938 247.429688 C 318.25 248.617188 318.835938 249.78125 319.464844 250.921875 C 320.09375 252.0625 320.765625 253.179688 321.476562 254.273438 C 334.65625 274.703125 353.648438 280.90625 384.738281 274.777344 L 384.738281 329.511719 L 362.890625 329.511719 C 347.214844 329.511719 331.519531 329.511719 315.804688 329.511719 C 311.53125 329.476562 306.019531 329.511719 303.410156 335.308594 C 300.964844 340.761719 304.085938 344.59375 306.84375 347.988281 C 308.445312 349.859375 309.808594 351.894531 310.929688 354.089844 C 312.050781 356.285156 312.898438 358.582031 313.476562 360.976562 C 314.050781 363.375 314.34375 365.804688 314.34375 368.269531 C 314.347656 370.734375 314.0625 373.167969 313.488281 375.566406 C 313.152344 377.191406 312.691406 378.785156 312.109375 380.34375 C 311.527344 381.898438 310.828125 383.402344 310.011719 384.851562 C 309.199219 386.300781 308.277344 387.679688 307.25 388.988281 C 306.222656 390.292969 305.101562 391.515625 303.882812 392.648438 C 302.667969 393.78125 301.375 394.816406 300 395.75 C 298.621094 396.683594 297.183594 397.503906 295.683594 398.214844 C 294.179688 398.929688 292.632812 399.519531 291.039062 399.992188 C 289.445312 400.464844 287.824219 400.8125 286.179688 401.035156 C 284.582031 401.242188 282.976562 401.332031 281.367188 401.304688 C 279.753906 401.277344 278.152344 401.132812 276.5625 400.875 C 274.972656 400.613281 273.410156 400.238281 271.878906 399.746094 C 270.34375 399.257812 268.851562 398.65625 267.402344 397.949219 C 265.957031 397.242188 264.566406 396.433594 263.238281 395.519531 C 261.910156 394.609375 260.65625 393.605469 259.472656 392.511719 C 258.289062 391.414062 257.195312 390.238281 256.183594 388.984375 C 255.171875 387.726562 254.261719 386.40625 253.441406 385.015625 C 252.601562 383.585938 251.871094 382.097656 251.257812 380.550781 C 250.644531 379.007812 250.15625 377.425781 249.789062 375.804688 C 249.421875 374.183594 249.179688 372.542969 249.070312 370.886719 C 248.957031 369.226562 248.972656 367.570312 249.113281 365.914062 C 249.257812 364.257812 249.53125 362.625 249.925781 361.011719 C 250.324219 359.398438 250.84375 357.824219 251.484375 356.292969 C 252.125 354.757812 252.882812 353.285156 253.753906 351.867188 C 254.621094 350.453125 255.597656 349.113281 256.675781 347.847656 C 257.152344 347.492188 257.601562 347.097656 258.011719 346.667969 C 258.425781 346.234375 258.796875 345.769531 259.128906 345.273438 C 259.460938 344.773438 259.746094 344.253906 259.988281 343.707031 C 260.230469 343.160156 260.421875 342.597656 260.566406 342.015625 C 260.710938 341.4375 260.804688 340.847656 260.847656 340.253906 C 260.890625 339.65625 260.878906 339.0625 260.820312 338.464844 C 260.757812 337.871094 260.648438 337.285156 260.488281 336.710938 C 260.324219 336.136719 260.117188 335.578125 259.859375 335.039062 C 259.601562 334.5 259.300781 333.988281 258.953125 333.5 C 258.605469 333.011719 258.222656 332.558594 257.796875 332.140625 C 257.371094 331.71875 256.914062 331.335938 256.421875 330.996094 C 255.933594 330.65625 255.417969 330.359375 254.875 330.105469 C 254.332031 329.855469 253.773438 329.652344 253.199219 329.496094 C 252.621094 329.339844 252.035156 329.238281 251.441406 329.183594 C 250.84375 329.128906 250.25 329.128906 249.65625 329.175781 C 249.058594 329.226562 248.472656 329.324219 247.894531 329.476562 C 235.152344 329.476562 222.410156 329.476562 209.660156 329.476562 C 196.910156 329.476562 184.167969 329.476562 171.425781 329.476562 C 162.285156 329.476562 158.886719 332.839844 158.882812 341.796875 L 158.882812 357.996094 C 158.882812 420.09375 158.882812 482.183594 158.882812 544.265625 C 158.832031 545.285156 158.832031 546.304688 158.886719 547.324219 C 158.941406 548.34375 159.050781 549.355469 159.210938 550.367188 C 159.371094 551.375 159.582031 552.371094 159.847656 553.355469 C 160.113281 554.34375 160.425781 555.3125 160.789062 556.265625 C 161.15625 557.21875 161.570312 558.152344 162.03125 559.0625 C 162.492188 559.972656 163 560.859375 163.554688 561.714844 C 164.105469 562.574219 164.703125 563.398438 165.34375 564.195312 C 165.980469 564.992188 166.660156 565.75 167.378906 566.476562 C 168.097656 567.203125 168.851562 567.886719 169.640625 568.535156 C 170.429688 569.179688 171.25 569.785156 172.101562 570.347656 C 172.957031 570.910156 173.835938 571.425781 174.738281 571.894531 C 175.644531 572.363281 176.574219 572.785156 177.523438 573.160156 C 178.472656 573.53125 179.441406 573.855469 180.421875 574.128906 C 181.40625 574.402344 182.402344 574.625 183.40625 574.792969 C 184.414062 574.960938 185.425781 575.078125 186.445312 575.144531 C 187.460938 575.207031 188.480469 575.21875 189.5 575.175781 C 257.914062 575.207031 326.328125 575.207031 394.742188 575.175781 C 463.160156 575.148438 531.574219 575.148438 599.992188 575.175781 C 601.011719 575.238281 602.035156 575.246094 603.054688 575.199219 C 604.078125 575.152344 605.09375 575.050781 606.101562 574.894531 C 607.113281 574.742188 608.113281 574.535156 609.101562 574.273438 C 610.09375 574.015625 611.066406 573.703125 612.019531 573.339844 C 612.976562 572.980469 613.910156 572.566406 614.824219 572.105469 C 615.738281 571.644531 616.621094 571.136719 617.480469 570.582031 C 618.339844 570.027344 619.167969 569.429688 619.964844 568.789062 C 620.761719 568.144531 621.519531 567.464844 622.246094 566.742188 C 622.96875 566.019531 623.652344 565.261719 624.296875 564.464844 C 624.941406 563.671875 625.542969 562.847656 626.101562 561.988281 C 626.65625 561.128906 627.167969 560.246094 627.632812 559.335938 C 628.09375 558.421875 628.511719 557.488281 628.875 556.535156 C 629.242188 555.578125 629.554688 554.605469 629.816406 553.617188 C 630.082031 552.628906 630.289062 551.628906 630.449219 550.617188 C 630.605469 549.605469 630.710938 548.589844 630.761719 547.570312 C 630.8125 546.546875 630.808594 545.527344 630.75 544.503906 C 630.808594 407.601562 630.808594 270.695312 630.75 133.785156 C 630.804688 132.765625 630.804688 131.75 630.753906 130.730469 C 630.699219 129.714844 630.59375 128.703125 630.4375 127.695312 C 630.277344 126.6875 630.066406 125.691406 629.800781 124.707031 C 629.539062 123.722656 629.226562 122.753906 628.859375 121.804688 C 628.496094 120.851562 628.082031 119.921875 627.617188 119.015625 C 627.15625 118.109375 626.648438 117.226562 626.09375 116.371094 C 625.535156 115.515625 624.9375 114.695312 624.296875 113.902344 C 623.65625 113.113281 622.972656 112.355469 622.253906 111.636719 C 621.53125 110.914062 620.777344 110.234375 619.984375 109.59375 C 619.191406 108.957031 618.367188 108.359375 617.511719 107.804688 C 616.65625 107.25 615.777344 106.742188 614.867188 106.28125 C 613.960938 105.820312 613.03125 105.410156 612.078125 105.046875 C 611.125 104.683594 610.160156 104.371094 609.175781 104.109375 C 608.191406 103.847656 607.195312 103.636719 606.1875 103.480469 C 605.179688 103.324219 604.167969 103.21875 603.152344 103.167969 C 602.136719 103.117188 601.117188 103.121094 600.101562 103.175781 Z M 390.324219 473.917969 C 389.324219 474.519531 388.4375 475.253906 387.660156 476.125 C 386.882812 477 386.253906 477.964844 385.773438 479.027344 C 385.289062 480.089844 384.976562 481.199219 384.832031 482.359375 C 384.6875 483.515625 384.714844 484.667969 384.921875 485.820312 C 385.058594 504.453125 385.035156 523.09375 385.015625 541.730469 L 385.015625 554.253906 C 384.984375 554.742188 384.910156 555.226562 384.78125 555.703125 L 193.074219 555.703125 C 181.242188 555.703125 178.519531 552.984375 178.519531 541.207031 L 178.519531 349.347656 L 232.957031 349.347656 C 226.53125 378.1875 232.574219 397.910156 251.878906 411.332031 C 252.945312 412.078125 254.039062 412.785156 255.160156 413.449219 C 256.277344 414.113281 257.421875 414.734375 258.585938 415.316406 C 259.753906 415.894531 260.941406 416.425781 262.148438 416.917969 C 263.355469 417.40625 264.578125 417.847656 265.816406 418.246094 C 267.058594 418.644531 268.3125 418.992188 269.578125 419.296875 C 270.84375 419.597656 272.121094 419.851562 273.40625 420.058594 C 274.691406 420.265625 275.980469 420.425781 277.277344 420.535156 C 278.578125 420.644531 279.875 420.703125 281.179688 420.714844 C 282.480469 420.726562 283.78125 420.691406 285.078125 420.605469 C 286.378906 420.519531 287.671875 420.382812 288.960938 420.199219 C 290.25 420.015625 291.53125 419.785156 292.800781 419.503906 C 294.074219 419.226562 295.332031 418.898438 296.578125 418.523438 C 297.828125 418.148438 299.058594 417.726562 300.273438 417.257812 C 301.488281 416.792969 302.683594 416.28125 303.863281 415.722656 C 305.039062 415.164062 306.191406 414.5625 307.324219 413.917969 C 308.457031 413.273438 309.5625 412.589844 310.640625 411.863281 C 330.4375 398.648438 336.574219 379.289062 330.386719 349.277344 L 384.636719 349.277344 C 384.785156 350.203125 384.871094 351.132812 384.890625 352.066406 L 384.796875 370.492188 C 384.6875 386.898438 384.578125 403.867188 384.796875 420.558594 C 384.949219 422.511719 385.5 424.347656 386.441406 426.066406 C 387.386719 427.785156 388.640625 429.234375 390.207031 430.410156 C 395.5625 434.03125 400.929688 429.421875 402.691406 427.910156 C 403.566406 427.132812 404.484375 426.40625 405.4375 425.730469 C 406.394531 425.054688 407.382812 424.433594 408.40625 423.863281 C 409.429688 423.292969 410.480469 422.78125 411.558594 422.324219 C 412.636719 421.867188 413.734375 421.472656 414.855469 421.136719 C 415.976562 420.796875 417.113281 420.523438 418.265625 420.308594 C 419.414062 420.09375 420.574219 419.945312 421.742188 419.855469 C 422.90625 419.765625 424.074219 419.742188 425.246094 419.777344 C 426.414062 419.816406 427.582031 419.917969 428.738281 420.078125 C 429.898438 420.242188 431.046875 420.46875 432.179688 420.757812 C 433.3125 421.042969 434.429688 421.390625 435.527344 421.800781 C 436.625 422.207031 437.695312 422.675781 438.742188 423.199219 C 439.789062 423.722656 440.804688 424.300781 441.789062 424.9375 C 442.773438 425.570312 443.71875 426.253906 444.628906 426.992188 C 445.539062 427.726562 446.410156 428.511719 447.234375 429.339844 C 448.058594 430.171875 448.835938 431.042969 449.570312 431.957031 C 450.300781 432.871094 450.980469 433.824219 451.609375 434.8125 C 452.238281 435.800781 452.8125 436.816406 453.328125 437.867188 C 453.847656 438.917969 454.308594 439.992188 454.710938 441.09375 C 455.113281 442.191406 455.457031 443.308594 455.738281 444.445312 C 456.019531 445.582031 456.238281 446.730469 456.394531 447.894531 C 456.554688 449.054688 456.648438 450.21875 456.679688 451.390625 C 456.710938 452.558594 456.679688 453.730469 456.585938 454.894531 C 456.488281 456.0625 456.332031 457.222656 456.113281 458.371094 C 455.894531 459.523438 455.613281 460.65625 455.269531 461.777344 C 454.925781 462.898438 454.527344 463.996094 454.066406 465.070312 C 453.605469 466.148438 453.085938 467.195312 452.511719 468.21875 C 451.9375 469.238281 451.308594 470.222656 450.628906 471.175781 C 449.949219 472.128906 449.21875 473.042969 448.4375 473.917969 C 447.660156 474.789062 446.835938 475.617188 445.964844 476.402344 C 445.097656 477.1875 444.1875 477.921875 443.238281 478.609375 C 442.292969 479.296875 441.308594 479.929688 440.292969 480.507812 C 439.273438 481.089844 438.230469 481.613281 437.15625 482.078125 C 435.777344 482.738281 434.359375 483.289062 432.898438 483.734375 C 431.4375 484.179688 429.953125 484.515625 428.441406 484.738281 C 426.933594 484.964844 425.414062 485.074219 423.886719 485.070312 C 422.359375 485.066406 420.84375 484.949219 419.332031 484.71875 C 417.824219 484.488281 416.339844 484.144531 414.882812 483.695312 C 413.421875 483.242188 412.007812 482.683594 410.632812 482.015625 C 409.257812 481.351562 407.9375 480.589844 406.679688 479.726562 C 405.417969 478.867188 404.226562 477.914062 403.109375 476.875 C 402.738281 476.414062 402.332031 475.988281 401.890625 475.59375 C 401.449219 475.203125 400.980469 474.847656 400.480469 474.535156 C 399.980469 474.222656 399.457031 473.949219 398.910156 473.722656 C 398.363281 473.496094 397.804688 473.316406 397.226562 473.183594 C 396.652344 473.050781 396.070312 472.964844 395.480469 472.929688 C 394.890625 472.894531 394.300781 472.90625 393.714844 472.96875 C 393.128906 473.03125 392.550781 473.144531 391.980469 473.300781 C 391.410156 473.460938 390.859375 473.667969 390.324219 473.917969 Z M 597.203125 555.730469 L 404.882812 555.730469 L 404.882812 501.054688 C 433.332031 509.453125 455.09375 501.539062 469.628906 477.527344 C 470.289062 476.425781 470.902344 475.296875 471.46875 474.148438 C 472.039062 472.996094 472.5625 471.824219 473.042969 470.632812 C 473.523438 469.441406 473.953125 468.234375 474.339844 467.011719 C 474.726562 465.785156 475.0625 464.546875 475.355469 463.296875 C 475.644531 462.046875 475.886719 460.785156 476.078125 459.515625 C 476.269531 458.246094 476.414062 456.972656 476.507812 455.691406 C 476.601562 454.410156 476.644531 453.128906 476.640625 451.84375 C 476.636719 450.5625 476.582031 449.277344 476.476562 448 C 476.371094 446.71875 476.21875 445.445312 476.015625 444.179688 C 475.8125 442.910156 475.5625 441.652344 475.261719 440.402344 C 474.960938 439.15625 474.613281 437.921875 474.214844 436.699219 C 473.820312 435.476562 473.378906 434.273438 472.890625 433.085938 C 472.402344 431.898438 471.867188 430.730469 471.289062 429.585938 C 470.710938 428.441406 470.085938 427.320312 469.421875 426.21875 C 468.753906 425.121094 468.046875 424.050781 467.300781 423.007812 C 466.550781 421.964844 465.761719 420.953125 464.9375 419.972656 C 449.40625 401.289062 429.160156 395.792969 404.734375 403.605469 L 404.734375 349.015625 C 405.320312 348.914062 405.910156 348.855469 406.507812 348.84375 L 417.910156 348.84375 C 436.894531 348.84375 455.890625 348.84375 474.882812 348.945312 L 475.171875 348.945312 C 475.71875 349.03125 476.269531 349.078125 476.824219 349.078125 C 477.375 349.082031 477.925781 349.039062 478.472656 348.953125 C 479.019531 348.867188 479.558594 348.738281 480.085938 348.566406 C 480.609375 348.394531 481.121094 348.183594 481.613281 347.929688 C 482.105469 347.679688 482.578125 347.390625 483.023438 347.0625 C 483.472656 346.734375 483.890625 346.375 484.28125 345.980469 C 484.667969 345.585938 485.027344 345.164062 485.347656 344.714844 C 485.671875 344.265625 485.957031 343.792969 486.203125 343.296875 C 486.621094 342.246094 486.867188 341.15625 486.949219 340.027344 C 487.03125 338.898438 486.941406 337.785156 486.683594 336.683594 C 486.421875 335.582031 486.007812 334.546875 485.429688 333.570312 C 484.855469 332.597656 484.148438 331.734375 483.308594 330.976562 C 482.890625 330.492188 482.484375 330 482.09375 329.492188 C 481.707031 328.984375 481.332031 328.46875 480.972656 327.9375 C 480.613281 327.410156 480.269531 326.871094 479.945312 326.320312 C 479.617188 325.773438 479.308594 325.214844 479.011719 324.648438 C 478.71875 324.078125 478.441406 323.503906 478.179688 322.921875 C 477.921875 322.335938 477.679688 321.746094 477.453125 321.148438 C 477.226562 320.550781 477.019531 319.945312 476.828125 319.335938 C 476.640625 318.722656 476.46875 318.109375 476.316406 317.488281 C 476.160156 316.867188 476.027344 316.242188 475.910156 315.617188 C 475.792969 314.988281 475.695312 314.355469 475.617188 313.722656 C 475.535156 313.085938 475.476562 312.453125 475.433594 311.8125 C 475.390625 311.175781 475.367188 310.539062 475.363281 309.898438 C 475.359375 309.257812 475.375 308.621094 475.40625 307.980469 C 475.441406 307.34375 475.492188 306.707031 475.5625 306.070312 C 475.632812 305.4375 475.722656 304.804688 475.832031 304.175781 C 475.941406 303.542969 476.066406 302.917969 476.210938 302.296875 C 476.355469 301.671875 476.519531 301.054688 476.699219 300.441406 C 476.882812 299.828125 477.082031 299.222656 477.296875 298.621094 C 477.515625 298.019531 477.75 297.425781 478.003906 296.839844 C 478.253906 296.25 478.523438 295.671875 478.8125 295.101562 C 479.097656 294.53125 479.398438 293.96875 479.71875 293.414062 C 480.039062 292.859375 480.375 292.316406 480.726562 291.78125 C 481.078125 291.25 481.445312 290.726562 481.828125 290.214844 C 482.210938 289.703125 482.605469 289.203125 483.019531 288.714844 C 483.429688 288.226562 483.855469 287.75 484.296875 287.285156 C 484.734375 286.820312 485.1875 286.371094 485.65625 285.933594 C 486.121094 285.5 486.601562 285.074219 487.09375 284.667969 C 487.582031 284.257812 488.085938 283.863281 488.601562 283.488281 C 489.117188 283.109375 489.640625 282.746094 490.175781 282.398438 C 490.714844 282.046875 491.257812 281.71875 491.8125 281.402344 C 492.371094 281.085938 492.933594 280.785156 493.507812 280.503906 C 494.082031 280.222656 494.660156 279.957031 495.25 279.710938 C 495.839844 279.460938 496.433594 279.230469 497.035156 279.019531 C 497.640625 278.804688 498.246094 278.609375 498.859375 278.433594 C 499.476562 278.257812 500.09375 278.097656 500.714844 277.957031 C 501.339844 277.816406 501.964844 277.695312 502.597656 277.589844 C 503.226562 277.488281 503.859375 277.402344 504.496094 277.335938 C 505.132812 277.269531 505.769531 277.222656 506.40625 277.195312 C 507.042969 277.164062 507.683594 277.15625 508.320312 277.164062 C 508.960938 277.175781 509.597656 277.203125 510.234375 277.25 C 510.871094 277.296875 511.507812 277.359375 512.140625 277.445312 C 512.773438 277.53125 513.40625 277.632812 514.03125 277.753906 C 514.660156 277.875 515.28125 278.015625 515.902344 278.171875 C 516.519531 278.332031 517.132812 278.507812 517.742188 278.703125 C 518.351562 278.894531 518.953125 279.109375 519.550781 279.339844 C 520.144531 279.570312 520.734375 279.816406 521.316406 280.082031 C 521.898438 280.34375 522.46875 280.625 523.035156 280.925781 C 523.601562 281.222656 524.15625 281.539062 524.703125 281.871094 C 525.246094 282.203125 525.785156 282.546875 526.308594 282.910156 C 526.835938 283.273438 527.351562 283.652344 527.855469 284.046875 C 528.359375 284.4375 528.847656 284.847656 529.328125 285.269531 C 529.808594 285.691406 530.273438 286.128906 530.730469 286.578125 C 531.183594 287.027344 531.621094 287.488281 532.050781 287.964844 C 532.476562 288.441406 532.886719 288.929688 533.285156 289.429688 C 533.683594 289.929688 534.066406 290.441406 534.433594 290.964844 C 534.800781 291.488281 535.152344 292.019531 535.488281 292.5625 C 535.828125 293.105469 536.144531 293.660156 536.449219 294.222656 C 536.753906 294.785156 537.039062 295.355469 537.308594 295.933594 C 537.582031 296.511719 537.832031 297.101562 538.066406 297.695312 C 538.304688 298.289062 538.519531 298.890625 538.722656 299.496094 C 538.921875 300.101562 539.101562 300.714844 539.265625 301.332031 C 539.429688 301.949219 539.578125 302.574219 539.703125 303.199219 C 539.832031 303.824219 539.941406 304.457031 540.03125 305.089844 C 540.121094 305.722656 540.191406 306.355469 540.246094 306.992188 C 540.429688 309.164062 540.390625 311.332031 540.128906 313.496094 C 539.871094 315.65625 539.394531 317.773438 538.699219 319.839844 C 538.007812 321.902344 537.109375 323.878906 536.011719 325.757812 C 534.914062 327.640625 533.636719 329.390625 532.183594 331.011719 C 531.734375 331.363281 531.320312 331.75 530.9375 332.171875 C 530.558594 332.589844 530.214844 333.042969 529.90625 333.519531 C 529.601562 334 529.335938 334.5 529.113281 335.023438 C 528.890625 335.546875 528.710938 336.082031 528.578125 336.636719 C 528.445312 337.1875 528.359375 337.75 528.320312 338.316406 C 528.28125 338.882812 528.289062 339.449219 528.347656 340.015625 C 528.402344 340.582031 528.503906 341.136719 528.652344 341.6875 C 528.800781 342.234375 528.996094 342.765625 529.234375 343.28125 C 529.511719 343.792969 529.832031 344.277344 530.183594 344.738281 C 530.539062 345.195312 530.929688 345.625 531.351562 346.027344 C 531.773438 346.425781 532.222656 346.789062 532.699219 347.117188 C 533.179688 347.449219 533.679688 347.738281 534.203125 347.988281 C 534.726562 348.242188 535.265625 348.449219 535.824219 348.617188 C 536.378906 348.785156 536.945312 348.90625 537.519531 348.988281 C 538.097656 349.066406 538.671875 349.101562 539.253906 349.089844 C 539.835938 349.078125 540.410156 349.023438 540.984375 348.921875 C 558.652344 348.769531 576.304688 348.792969 594.253906 348.8125 L 611.191406 348.8125 L 611.191406 349.242188 C 611.292969 350.632812 611.386719 351.953125 611.386719 353.269531 C 611.386719 415.949219 611.386719 478.625 611.386719 541.300781 C 611.429688 552.628906 608.378906 555.722656 597.203125 555.730469 Z M 611.429688 328.960938 L 556.652344 328.960938 C 565.003906 300.730469 557.269531 279.039062 533.636719 264.457031 C 532.53125 263.777344 531.402344 263.148438 530.246094 262.558594 C 529.09375 261.972656 527.914062 261.429688 526.71875 260.933594 C 525.519531 260.4375 524.308594 259.988281 523.074219 259.585938 C 521.84375 259.183594 520.597656 258.832031 519.335938 258.527344 C 518.078125 258.222656 516.808594 257.96875 515.527344 257.761719 C 514.25 257.558594 512.960938 257.402344 511.671875 257.296875 C 510.378906 257.191406 509.085938 257.136719 507.789062 257.132812 C 506.496094 257.128906 505.199219 257.175781 503.90625 257.273438 C 502.617188 257.371094 501.328125 257.515625 500.046875 257.714844 C 498.765625 257.910156 497.496094 258.15625 496.234375 258.453125 C 494.972656 258.75 493.726562 259.09375 492.492188 259.488281 C 491.253906 259.882812 490.039062 260.324219 488.835938 260.8125 C 487.636719 261.300781 486.457031 261.835938 485.300781 262.414062 C 484.140625 262.996094 483.007812 263.621094 481.894531 264.289062 C 480.785156 264.960938 479.703125 265.671875 478.648438 266.425781 C 477.59375 267.175781 476.570312 267.972656 475.578125 268.804688 C 456.816406 284.386719 451.3125 304.636719 459.199219 329.039062 L 404.378906 329.039062 L 404.378906 309.984375 C 404.378906 293.289062 404.378906 276.589844 404.378906 259.890625 C 404.527344 259.316406 404.628906 258.730469 404.679688 258.140625 C 404.730469 257.546875 404.730469 256.957031 404.679688 256.363281 C 404.628906 255.773438 404.527344 255.1875 404.378906 254.613281 C 404.226562 254.039062 404.027344 253.484375 403.78125 252.941406 C 403.535156 252.402344 403.242188 251.886719 402.90625 251.398438 C 402.570312 250.90625 402.195312 250.449219 401.78125 250.023438 C 401.367188 249.597656 400.921875 249.210938 400.4375 248.863281 C 399.957031 248.515625 399.453125 248.210938 398.917969 247.949219 C 398.386719 247.6875 397.832031 247.472656 397.261719 247.308594 C 396.691406 247.140625 396.113281 247.027344 395.523438 246.960938 C 394.933594 246.894531 394.34375 246.878906 393.75 246.914062 C 393.15625 246.949219 392.570312 247.035156 391.992188 247.171875 C 391.414062 247.308594 390.855469 247.492188 390.308594 247.722656 C 389.761719 247.957031 389.238281 248.234375 388.742188 248.558594 C 388.242188 248.878906 387.773438 249.242188 387.339844 249.648438 C 386.902344 250.050781 386.503906 250.488281 386.144531 250.960938 C 385.355469 251.628906 384.539062 252.257812 383.691406 252.847656 C 382.84375 253.4375 381.96875 253.984375 381.070312 254.488281 C 380.167969 254.992188 379.246094 255.453125 378.300781 255.871094 C 377.355469 256.289062 376.390625 256.65625 375.410156 256.980469 C 374.429688 257.304688 373.4375 257.578125 372.429688 257.808594 C 371.421875 258.035156 370.40625 258.214844 369.382812 258.34375 C 368.359375 258.472656 367.332031 258.554688 366.296875 258.585938 C 365.265625 258.613281 364.234375 258.597656 363.203125 258.527344 C 362.175781 258.457031 361.148438 258.339844 360.128906 258.171875 C 359.113281 258.003906 358.101562 257.789062 357.105469 257.523438 C 356.105469 257.261719 355.125 256.949219 354.15625 256.589844 C 353.1875 256.230469 352.238281 255.824219 351.3125 255.375 C 350.382812 254.921875 349.476562 254.429688 348.59375 253.890625 C 347.714844 253.351562 346.859375 252.773438 346.035156 252.152344 C 345.207031 251.53125 344.414062 250.875 343.652344 250.175781 C 342.890625 249.480469 342.164062 248.746094 341.472656 247.980469 C 340.777344 247.21875 340.117188 246.421875 339.5 245.597656 C 338.878906 244.773438 338.296875 243.917969 337.757812 243.039062 C 337.21875 242.15625 336.722656 241.253906 336.269531 240.324219 C 335.816406 239.398438 335.40625 238.449219 335.042969 237.484375 C 334.679688 236.519531 334.359375 235.535156 334.089844 234.539062 C 333.816406 233.542969 333.59375 232.535156 333.417969 231.519531 C 333.242188 230.5 333.113281 229.476562 333.035156 228.449219 C 332.953125 227.417969 332.925781 226.386719 332.941406 225.355469 C 332.960938 224.320312 333.027344 223.292969 333.144531 222.265625 C 333.257812 221.238281 333.421875 220.222656 333.636719 219.210938 C 333.847656 218.199219 334.105469 217.199219 334.414062 216.214844 C 334.71875 215.230469 335.074219 214.257812 335.472656 213.304688 C 335.867188 212.351562 336.3125 211.421875 336.796875 210.511719 C 337.285156 209.597656 337.8125 208.714844 338.382812 207.851562 C 338.953125 206.992188 339.5625 206.160156 340.210938 205.355469 C 340.859375 204.554688 341.546875 203.78125 342.269531 203.042969 C 342.984375 202.304688 343.738281 201.597656 344.523438 200.929688 C 345.3125 200.261719 346.128906 199.628906 346.972656 199.039062 C 347.820312 198.449219 348.695312 197.902344 349.59375 197.398438 C 350.492188 196.890625 351.414062 196.429688 352.359375 196.011719 C 353.304688 195.597656 354.265625 195.226562 355.246094 194.902344 C 356.226562 194.578125 357.21875 194.304688 358.226562 194.074219 C 359.230469 193.847656 360.246094 193.667969 361.269531 193.539062 C 362.292969 193.410156 363.320312 193.328125 364.355469 193.296875 C 365.386719 193.265625 366.414062 193.285156 367.445312 193.355469 C 368.476562 193.425781 369.5 193.542969 370.515625 193.710938 C 371.535156 193.878906 372.542969 194.09375 373.539062 194.359375 C 374.539062 194.625 375.519531 194.9375 376.488281 195.296875 C 377.453125 195.65625 378.402344 196.0625 379.332031 196.515625 C 380.257812 196.964844 381.164062 197.460938 382.042969 198 C 382.921875 198.539062 383.777344 199.117188 384.601562 199.738281 C 385.425781 200.359375 386.21875 201.019531 386.976562 201.71875 C 387.359375 202.144531 387.773438 202.535156 388.21875 202.894531 C 388.664062 203.25 389.140625 203.570312 389.636719 203.847656 C 390.136719 204.125 390.65625 204.359375 391.195312 204.550781 C 391.734375 204.738281 392.289062 204.882812 392.851562 204.980469 C 393.414062 205.078125 393.980469 205.128906 394.554688 205.132812 C 395.125 205.136719 395.695312 205.089844 396.257812 204.996094 C 396.820312 204.90625 397.375 204.765625 397.914062 204.582031 C 398.457031 204.394531 398.976562 204.164062 399.480469 203.890625 C 400.421875 203.296875 401.257812 202.582031 401.988281 201.742188 C 402.722656 200.90625 403.316406 199.980469 403.78125 198.96875 C 404.246094 197.957031 404.554688 196.898438 404.710938 195.796875 C 404.863281 194.695312 404.859375 193.59375 404.695312 192.492188 C 404.5 174.988281 404.523438 157.847656 404.550781 139.707031 L 404.550781 122.914062 L 404.972656 122.914062 C 406.363281 122.804688 407.679688 122.703125 409 122.703125 C 471.847656 122.703125 534.691406 122.703125 597.535156 122.703125 C 608.460938 122.703125 611.453125 125.746094 611.460938 136.851562 C 611.460938 183.867188 611.460938 230.886719 611.460938 277.898438 Z M 201.324219 241.597656 L 212.71875 246.148438 C 223.148438 250.316406 233.347656 254.386719 243.5625 258.410156 C 250.953125 261.308594 255.679688 259.476562 258.449219 252.613281 C 266.097656 233.695312 274 214.132812 281.410156 194.367188 C 281.691406 193.429688 281.863281 192.472656 281.921875 191.492188 C 281.980469 190.515625 281.925781 189.542969 281.757812 188.574219 C 281.589844 187.609375 281.316406 186.675781 280.929688 185.773438 C 280.546875 184.871094 280.066406 184.027344 279.484375 183.234375 C 277.382812 180.84375 272.964844 180.894531 269.292969 180.9375 C 267.371094 181.007812 265.464844 181.222656 263.578125 181.582031 C 262.863281 181.6875 262.144531 181.761719 261.425781 181.800781 C 260.703125 181.835938 259.980469 181.839844 259.257812 181.8125 C 258.539062 181.78125 257.820312 181.71875 257.105469 181.621094 C 256.386719 181.523438 255.679688 181.394531 254.976562 181.230469 C 254.273438 181.066406 253.578125 180.871094 252.894531 180.640625 C 252.207031 180.410156 251.535156 180.152344 250.875 179.859375 C 250.214844 179.566406 249.570312 179.242188 248.9375 178.890625 C 248.308594 178.539062 247.695312 178.15625 247.101562 177.746094 C 246.507812 177.335938 245.933594 176.898438 245.378906 176.433594 C 244.828125 175.96875 244.296875 175.480469 243.789062 174.964844 C 243.28125 174.453125 242.800781 173.914062 242.34375 173.355469 C 241.886719 172.796875 241.457031 172.214844 241.050781 171.617188 C 240.648438 171.015625 240.277344 170.398438 239.933594 169.765625 C 239.585938 169.128906 239.273438 168.480469 238.988281 167.816406 C 238.707031 167.148438 238.453125 166.472656 238.234375 165.785156 C 238.011719 165.097656 237.824219 164.402344 237.671875 163.695312 C 237.515625 162.988281 237.394531 162.277344 237.308594 161.558594 C 237.21875 160.84375 237.164062 160.125 237.144531 159.402344 C 237.125 158.679688 237.136719 157.957031 237.183594 157.234375 C 237.230469 156.515625 237.3125 155.796875 237.425781 155.085938 C 237.542969 154.371094 237.6875 153.664062 237.871094 152.964844 C 238.050781 152.265625 238.265625 151.574219 238.511719 150.894531 C 238.753906 150.214844 239.03125 149.550781 239.339844 148.894531 C 239.648438 148.242188 239.988281 147.605469 240.355469 146.984375 C 240.722656 146.363281 241.121094 145.757812 241.542969 145.175781 C 241.96875 144.589844 242.417969 144.027344 242.898438 143.484375 C 243.375 142.941406 243.875 142.421875 244.402344 141.929688 C 244.929688 141.433594 245.476562 140.964844 246.046875 140.519531 C 246.617188 140.078125 247.207031 139.660156 247.816406 139.273438 C 248.425781 138.886719 249.050781 138.527344 249.695312 138.199219 C 250.335938 137.867188 250.996094 137.570312 251.664062 137.304688 C 252.335938 137.035156 253.019531 136.800781 253.710938 136.597656 C 254.988281 136.195312 256.289062 135.910156 257.617188 135.734375 C 258.941406 135.5625 260.273438 135.503906 261.613281 135.5625 C 262.949219 135.621094 264.269531 135.796875 265.574219 136.085938 C 266.882812 136.375 268.152344 136.773438 269.390625 137.28125 C 270.628906 137.792969 271.8125 138.40625 272.941406 139.125 C 274.070312 139.839844 275.132812 140.648438 276.121094 141.550781 C 277.109375 142.449219 278.015625 143.429688 278.835938 144.488281 C 279.652344 145.546875 280.375 146.667969 281 147.851562 C 282.449219 150.390625 285.933594 156.324219 291.863281 154.476562 C 293.75 153.769531 295.425781 152.726562 296.890625 151.351562 C 298.359375 149.972656 299.507812 148.367188 300.332031 146.53125 C 306.707031 131.378906 312.851562 115.839844 318.785156 100.804688 L 322.617188 91.109375 C 325.941406 82.707031 324.0625 78.332031 315.574219 74.933594 C 307.085938 71.53125 298.804688 68.257812 290.417969 64.929688 L 244.683594 46.789062 C 219.605469 36.816406 194.519531 26.863281 169.429688 16.933594 C 168.640625 16.550781 167.832031 16.207031 167.007812 15.90625 C 166.183594 15.609375 165.347656 15.351562 164.496094 15.140625 C 163.644531 14.929688 162.785156 14.761719 161.917969 14.640625 C 161.046875 14.519531 160.175781 14.445312 159.296875 14.414062 C 158.421875 14.382812 157.546875 14.402344 156.671875 14.460938 C 155.796875 14.523438 154.925781 14.632812 154.0625 14.785156 C 153.199219 14.941406 152.347656 15.136719 151.503906 15.382812 C 150.660156 15.625 149.832031 15.910156 149.019531 16.242188 C 148.207031 16.570312 147.414062 16.945312 146.640625 17.355469 C 145.867188 17.769531 145.117188 18.222656 144.390625 18.714844 C 143.667969 19.207031 142.96875 19.738281 142.296875 20.304688 C 141.625 20.867188 140.988281 21.46875 140.378906 22.101562 C 139.773438 22.734375 139.199219 23.394531 138.660156 24.089844 C 138.125 24.78125 137.625 25.5 137.160156 26.246094 C 136.699219 26.992188 136.277344 27.761719 135.894531 28.550781 C 135.511719 29.339844 135.171875 30.148438 134.875 30.972656 C 115.113281 80.359375 95.46875 129.796875 75.9375 179.277344 C 75.734375 179.621094 75.546875 179.972656 75.386719 180.335938 C 75.222656 180.699219 75.082031 181.074219 74.960938 181.453125 C 74.84375 181.835938 74.746094 182.222656 74.671875 182.613281 C 74.601562 183.003906 74.550781 183.398438 74.523438 183.796875 C 74.5 184.195312 74.496094 184.59375 74.515625 184.992188 C 74.539062 185.390625 74.582031 185.785156 74.652344 186.179688 C 74.71875 186.570312 74.8125 186.960938 74.925781 187.339844 C 75.039062 187.722656 75.175781 188.097656 75.335938 188.464844 C 75.496094 188.828125 75.675781 189.183594 75.875 189.527344 C 76.078125 189.871094 76.296875 190.203125 76.539062 190.523438 C 76.777344 190.839844 77.035156 191.144531 77.3125 191.429688 C 77.589844 191.71875 77.882812 191.988281 78.191406 192.238281 C 78.5 192.492188 78.820312 192.726562 79.160156 192.9375 C 79.496094 193.152344 79.84375 193.347656 80.203125 193.519531 C 80.5625 193.691406 80.929688 193.84375 81.308594 193.972656 C 81.683594 194.101562 82.066406 194.207031 82.457031 194.289062 C 90.808594 197.6875 99.175781 201.023438 107.550781 204.363281 L 121.878906 210.097656 C 122.855469 210.488281 123.8125 210.9375 124.8125 211.402344 C 124.097656 212.257812 123.414062 213.144531 122.769531 214.058594 C 122.121094 214.96875 121.511719 215.90625 120.941406 216.867188 C 120.371094 217.832031 119.835938 218.8125 119.34375 219.816406 C 118.851562 220.820312 118.398438 221.84375 117.988281 222.882812 C 117.574219 223.921875 117.207031 224.976562 116.878906 226.046875 C 116.550781 227.117188 116.265625 228.199219 116.023438 229.289062 C 115.785156 230.382812 115.585938 231.480469 115.433594 232.589844 C 115.28125 233.699219 115.171875 234.8125 115.105469 235.925781 C 115.042969 237.042969 115.019531 238.160156 115.046875 239.28125 C 115.070312 240.398438 115.140625 241.515625 115.253906 242.625 C 115.367188 243.738281 115.523438 244.847656 115.726562 245.945312 C 115.925781 247.046875 116.171875 248.136719 116.460938 249.21875 C 116.75 250.296875 117.082031 251.367188 117.453125 252.417969 C 117.828125 253.472656 118.246094 254.511719 118.699219 255.53125 C 119.15625 256.554688 119.652344 257.554688 120.191406 258.535156 C 120.726562 259.515625 121.300781 260.476562 121.914062 261.410156 C 122.777344 262.945312 123.738281 264.417969 124.800781 265.828125 C 125.859375 267.234375 127.003906 268.566406 128.242188 269.820312 C 129.476562 271.078125 130.789062 272.246094 132.179688 273.328125 C 133.570312 274.410156 135.027344 275.394531 136.546875 276.28125 C 138.070312 277.167969 139.640625 277.953125 141.265625 278.632812 C 142.890625 279.308594 144.554688 279.878906 146.253906 280.335938 C 147.957031 280.792969 149.679688 281.136719 151.425781 281.367188 C 153.171875 281.597656 154.925781 281.710938 156.6875 281.707031 C 158.910156 281.703125 161.121094 281.542969 163.320312 281.226562 C 184.871094 278.117188 197.636719 264.804688 201.324219 241.597656 Z M 135.984375 246.191406 C 135.574219 244.988281 135.265625 243.761719 135.058594 242.511719 C 134.851562 241.257812 134.746094 239.996094 134.742188 238.730469 C 134.742188 237.460938 134.84375 236.199219 135.046875 234.945312 C 135.25 233.695312 135.550781 232.464844 135.957031 231.261719 C 136.359375 230.058594 136.859375 228.898438 137.453125 227.773438 C 138.042969 226.652344 138.726562 225.585938 139.492188 224.578125 C 140.257812 223.566406 141.101562 222.625 142.023438 221.75 C 142.945312 220.878906 143.929688 220.085938 144.980469 219.375 C 145.625 218.9375 146.304688 218.527344 146.988281 218.121094 C 150.484375 216.011719 154.847656 213.394531 154.019531 207.191406 C 153.195312 200.984375 148.261719 199.21875 144.292969 197.769531 C 143.683594 197.542969 143.074219 197.324219 142.480469 197.085938 L 97.113281 179.105469 L 97.386719 178.378906 C 97.953125 176.816406 98.488281 175.320312 99.074219 173.851562 L 102.132812 166.101562 C 118.773438 124.214844 135.433594 82.335938 152.113281 40.460938 C 154.679688 34.019531 156.925781 32.980469 163.089844 35.421875 C 202.269531 50.953125 241.441406 66.507812 280.601562 82.09375 L 300.160156 89.871094 C 300.667969 90.074219 301.160156 90.320312 301.804688 90.636719 L 287.9375 125.636719 C 269.175781 112.535156 251.039062 112.402344 234 125.246094 C 232.378906 126.398438 230.851562 127.667969 229.421875 129.050781 C 227.988281 130.429688 226.667969 131.914062 225.457031 133.492188 C 224.246094 135.070312 223.160156 136.730469 222.199219 138.472656 C 221.234375 140.214844 220.40625 142.019531 219.714844 143.886719 C 219.019531 145.75 218.46875 147.65625 218.0625 149.605469 C 217.652344 151.554688 217.390625 153.519531 217.277344 155.507812 C 217.164062 157.496094 217.195312 159.480469 217.378906 161.460938 C 217.558594 163.445312 217.886719 165.402344 218.359375 167.335938 C 222.539062 187.207031 235.695312 198.921875 257.476562 202.183594 L 243.554688 237.3125 L 198.101562 219.285156 C 197.742188 219.136719 197.394531 218.964844 197.054688 218.773438 C 196.011719 218.160156 194.886719 217.804688 193.679688 217.707031 C 192.957031 217.707031 192.160156 217.707031 191.371094 217.707031 C 189.867188 217.472656 188.371094 217.5 186.878906 217.789062 C 185.382812 218.078125 183.984375 218.609375 182.675781 219.386719 C 180.25 221.394531 180.199219 225.824219 180.15625 229.382812 L 180.15625 230.027344 C 180.171875 232.019531 180.332031 233.996094 180.628906 235.964844 C 181.058594 238.394531 181.152344 240.839844 180.902344 243.300781 C 180.6875 244.546875 180.371094 245.769531 179.953125 246.960938 C 179.53125 248.15625 179.015625 249.308594 178.40625 250.414062 C 177.792969 251.523438 177.09375 252.574219 176.304688 253.5625 C 175.515625 254.554688 174.652344 255.472656 173.710938 256.316406 C 172.769531 257.164062 171.761719 257.921875 170.691406 258.601562 C 169.625 259.277344 168.503906 259.859375 167.339844 260.347656 C 166.171875 260.839844 164.972656 261.226562 163.738281 261.515625 C 162.507812 261.800781 161.257812 261.984375 159.996094 262.0625 C 158.707031 262.167969 157.414062 262.164062 156.125 262.050781 C 154.835938 261.941406 153.5625 261.722656 152.308594 261.402344 C 151.054688 261.078125 149.835938 260.652344 148.652344 260.128906 C 147.46875 259.601562 146.335938 258.980469 145.253906 258.269531 C 144.175781 257.554688 143.160156 256.753906 142.214844 255.871094 C 141.265625 254.988281 140.398438 254.035156 139.609375 253.007812 C 138.820312 251.980469 138.121094 250.894531 137.511719 249.75 C 136.902344 248.605469 136.394531 247.417969 135.984375 246.191406 Z M 135.984375 246.191406 " fill-opacity="1" fill-rule="nonzero"/></g></svg>